<svg width="22" height="27" viewBox="0 0 22 27" fill="none" xmlns="http://www.w3.org/2000/svg">
<path d="M10.5085 13.0123C16.0284 12.7408 20.7233 16.9956 20.9948 22.5155C21.1926 26.5394 15.76 25.5943 10.5085 25.4648C5.58442 25.3434 0.81969 26.2885 1.00525 22.5155C1.26306 17.2734 5.26631 13.2701 10.5085 13.0123Z" stroke="white" style="stroke:white;stroke-opacity:1;"/>
<path d="M10.6559 15.0088C14.5199 14.8156 17.8063 17.8421 17.9963 21.7686C18.1349 24.6309 14.332 23.9586 10.6559 23.8664C7.20909 23.7801 3.87378 24.4524 4.00367 21.7686C4.18414 18.0397 6.98642 15.1921 10.6559 15.0088Z" stroke="white" style="stroke:white;stroke-opacity:1;"/>
<path d="M16 5.99791C16 9.458 13.4345 11.0942 10.8387 10.9958C8.33943 10.9011 6 8.97808 6 5.99791C6 3.01774 7.6129 1 10.8387 1C14.0645 1 16 2.53782 16 5.99791Z" stroke="white" style="stroke:white;stroke-opacity:1;"/>
</svg>
