<svg width="36" height="36" viewBox="0 0 36 36" fill="none" xmlns="http://www.w3.org/2000/svg">
<path fill-rule="evenodd" clip-rule="evenodd" d="M22.5 1.5C20.1131 1.5 17.8239 2.44821 16.136 4.13604C14.4482 5.82387 13.5 8.11305 13.5 10.5V13.5H10.5C9.67157 13.5 9 14.1716 9 15V21C9 21.8284 9.67157 22.5 10.5 22.5H13.5V33C13.5 33.8284 14.1716 34.5 15 34.5H21C21.8284 34.5 22.5 33.8284 22.5 33V22.5H25.5C26.1883 22.5 26.7883 22.0316 26.9552 21.3638L28.4552 15.3638C28.5672 14.9157 28.4666 14.441 28.1823 14.0769C27.8981 13.7128 27.4619 13.5 27 13.5H22.5V10.5H27C27.8284 10.5 28.5 9.82843 28.5 9V3C28.5 2.17157 27.8284 1.5 27 1.5H22.5ZM18.2574 6.25736C19.3826 5.13214 20.9087 4.5 22.5 4.5H25.5V7.5H22.5C21.7044 7.5 20.9413 7.81607 20.3787 8.37868C19.8161 8.94129 19.5 9.70435 19.5 10.5V15C19.5 15.8284 20.1716 16.5 21 16.5H25.0788L24.3288 19.5H21C20.1716 19.5 19.5 20.1716 19.5 21V31.5H16.5V21C16.5 20.1716 15.8284 19.5 15 19.5H12V16.5H15C15.8284 16.5 16.5 15.8284 16.5 15V10.5C16.5 8.9087 17.1321 7.38258 18.2574 6.25736Z" fill="#6FC740" style="fill:#6FC740;fill:color(display-p3 0.4353 0.7804 0.2510);fill-opacity:1;"/>
</svg>
