<svg width="36" height="36" viewBox="0 0 36 36" fill="none" xmlns="http://www.w3.org/2000/svg">
<path fill-rule="evenodd" clip-rule="evenodd" d="M14.6105 11.2779C16.0108 10.5514 17.6045 10.2848 19.165 10.5162C20.7567 10.7523 22.2303 11.494 23.3681 12.6318C24.506 13.7696 25.2477 15.2432 25.4837 16.835C25.7151 18.3954 25.4486 19.9891 24.722 21.3894C23.9954 22.7896 22.8459 23.9251 21.4368 24.6344C20.0277 25.3436 18.4308 25.5905 16.8733 25.3398C15.3158 25.0892 13.877 24.3539 12.7615 23.2384C11.646 22.1229 10.9107 20.6841 10.6601 19.1266C10.4095 17.5691 10.6563 15.9723 11.3656 14.5632C12.0748 13.1541 13.2103 12.0045 14.6105 11.2779ZM18.7249 13.4838C17.7886 13.3449 16.8324 13.5049 15.9923 13.9408C15.1521 14.3767 14.4708 15.0665 14.0453 15.9119C13.6197 16.7574 13.4716 17.7155 13.622 18.65C13.7723 19.5845 14.2136 20.4478 14.8828 21.1171C15.5521 21.7864 16.4154 22.2276 17.3499 22.3779C18.2844 22.5283 19.2425 22.3802 20.088 21.9547C20.9334 21.5291 21.6232 20.8478 22.0591 20.0077C22.4951 19.1675 22.655 18.2113 22.5162 17.275C22.3745 16.32 21.9295 15.4358 21.2468 14.7531C20.5641 14.0704 19.6799 13.6254 18.7249 13.4838Z" fill="#6FC740" style="fill:#6FC740;fill:color(display-p3 0.4353 0.7804 0.2510);fill-opacity:1;"/>
<path d="M26.25 8.25C25.4216 8.25 24.75 8.92157 24.75 9.75C24.75 10.5784 25.4216 11.25 26.25 11.25H26.265C27.0934 11.25 27.765 10.5784 27.765 9.75C27.765 8.92157 27.0934 8.25 26.265 8.25H26.25Z" fill="#6FC740" style="fill:#6FC740;fill:color(display-p3 0.4353 0.7804 0.2510);fill-opacity:1;"/>
<path fill-rule="evenodd" clip-rule="evenodd" d="M1.5 10.5C1.5 5.52944 5.52944 1.5 10.5 1.5H25.5C30.4706 1.5 34.5 5.52944 34.5 10.5V25.5C34.5 30.4706 30.4706 34.5 25.5 34.5H10.5C5.52944 34.5 1.5 30.4706 1.5 25.5V10.5ZM10.5 4.5C7.18629 4.5 4.5 7.18629 4.5 10.5V25.5C4.5 28.8137 7.18629 31.5 10.5 31.5H25.5C28.8137 31.5 31.5 28.8137 31.5 25.5V10.5C31.5 7.18629 28.8137 4.5 25.5 4.5H10.5Z" fill="#6FC740" style="fill:#6FC740;fill:color(display-p3 0.4353 0.7804 0.2510);fill-opacity:1;"/>
<path fill-rule="evenodd" clip-rule="evenodd" d="M14.6105 11.2779C16.0108 10.5514 17.6045 10.2848 19.165 10.5162C20.7567 10.7523 22.2303 11.494 23.3681 12.6318C24.506 13.7696 25.2477 15.2432 25.4837 16.835C25.7151 18.3954 25.4486 19.9891 24.722 21.3894C23.9954 22.7896 22.8459 23.9251 21.4368 24.6344C20.0277 25.3436 18.4308 25.5905 16.8733 25.3398C15.3158 25.0892 13.877 24.3539 12.7615 23.2384C11.646 22.1229 10.9107 20.6841 10.6601 19.1266C10.4095 17.5691 10.6563 15.9723 11.3656 14.5632C12.0748 13.1541 13.2103 12.0045 14.6105 11.2779ZM18.7249 13.4838C17.7886 13.3449 16.8324 13.5049 15.9923 13.9408C15.1521 14.3767 14.4708 15.0665 14.0453 15.9119C13.6197 16.7574 13.4716 17.7155 13.622 18.65C13.7723 19.5845 14.2136 20.4478 14.8828 21.1171C15.5521 21.7864 16.4154 22.2276 17.3499 22.3779C18.2844 22.5283 19.2425 22.3802 20.088 21.9547C20.9334 21.5291 21.6232 20.8478 22.0591 20.0077C22.4951 19.1675 22.655 18.2113 22.5162 17.275C22.3745 16.32 21.9295 15.4358 21.2468 14.7531C20.5641 14.0704 19.6799 13.6254 18.7249 13.4838Z" stroke="#6FC740" style="stroke:#6FC740;stroke:color(display-p3 0.4353 0.7804 0.2510);stroke-opacity:1;"/>
<path d="M26.25 8.25C25.4216 8.25 24.75 8.92157 24.75 9.75C24.75 10.5784 25.4216 11.25 26.25 11.25H26.265C27.0934 11.25 27.765 10.5784 27.765 9.75C27.765 8.92157 27.0934 8.25 26.265 8.25H26.25Z" stroke="#6FC740" style="stroke:#6FC740;stroke:color(display-p3 0.4353 0.7804 0.2510);stroke-opacity:1;"/>
<path fill-rule="evenodd" clip-rule="evenodd" d="M1.5 10.5C1.5 5.52944 5.52944 1.5 10.5 1.5H25.5C30.4706 1.5 34.5 5.52944 34.5 10.5V25.5C34.5 30.4706 30.4706 34.5 25.5 34.5H10.5C5.52944 34.5 1.5 30.4706 1.5 25.5V10.5ZM10.5 4.5C7.18629 4.5 4.5 7.18629 4.5 10.5V25.5C4.5 28.8137 7.18629 31.5 10.5 31.5H25.5C28.8137 31.5 31.5 28.8137 31.5 25.5V10.5C31.5 7.18629 28.8137 4.5 25.5 4.5H10.5Z" stroke="#6FC740" style="stroke:#6FC740;stroke:color(display-p3 0.4353 0.7804 0.2510);stroke-opacity:1;"/>
</svg>
