<svg width="80" height="80" viewBox="0 0 80 80" fill="none" xmlns="http://www.w3.org/2000/svg">
<rect x="1.5" y="1.5" width="77" height="77" rx="8.5" stroke="white" style="stroke:white;stroke-opacity:1;" stroke-width="3"/>
<path fill-rule="evenodd" clip-rule="evenodd" d="M40.5 29.25C36.3579 29.25 33 32.6079 33 36.75C33 40.8921 36.3579 44.25 40.5 44.25C44.6421 44.25 48 40.8921 48 36.75C48 32.6079 44.6421 29.25 40.5 29.25ZM36.75 36.75C36.75 34.6789 38.4289 33 40.5 33C42.5711 33 44.25 34.6789 44.25 36.75C44.25 38.8211 42.5711 40.5 40.5 40.5C38.4289 40.5 36.75 38.8211 36.75 36.75Z" fill="white" style="fill:white;fill-opacity:1;"/>
<path fill-rule="evenodd" clip-rule="evenodd" d="M39.4589 62.6844C39.4595 62.6848 39.4599 62.6851 40.5 61.125L39.4589 62.6844C40.0887 63.1043 40.9103 63.105 41.5401 62.6851L40.5 61.125C41.5401 62.6851 41.5395 62.6855 41.5401 62.6851L41.5464 62.6808L41.5589 62.6724L41.6019 62.6434C41.6384 62.6186 41.6905 62.583 41.7571 62.5369C41.8903 62.4446 42.0816 62.3102 42.3229 62.136C42.8052 61.7876 43.4881 61.2792 44.3047 60.6289C45.935 59.3307 48.1136 57.4553 50.2987 55.1489C54.592 50.617 59.25 44.0661 59.25 36.75C59.25 31.7772 57.2746 27.0081 53.7583 23.4917C50.2419 19.9754 45.4728 18 40.5 18C35.5272 18 30.7581 19.9754 27.2417 23.4917C23.7254 27.0081 21.75 31.7772 21.75 36.75C21.75 44.0661 26.408 50.617 30.7013 55.1489C32.8864 57.4553 35.065 59.3307 36.6953 60.6289C37.5119 61.2792 38.1948 61.7876 38.6771 62.136C38.9184 62.3102 39.1097 62.4446 39.2429 62.5369C39.3095 62.583 39.3616 62.6186 39.3981 62.6434L39.4411 62.6724L39.4536 62.6808L39.4589 62.6844ZM29.8934 26.1434C32.7064 23.3304 36.5218 21.75 40.5 21.75C44.4782 21.75 48.2936 23.3304 51.1066 26.1434C53.9196 28.9564 55.5 32.7718 55.5 36.75C55.5 42.5589 51.7205 48.1955 47.5763 52.5699C45.5426 54.7166 43.5025 56.474 41.9687 57.6953C41.3979 58.1499 40.8993 58.5285 40.5 58.8236C40.1007 58.5285 39.6021 58.1499 39.0313 57.6953C37.4975 56.474 35.4574 54.7166 33.4237 52.5699C29.2795 48.1955 25.5 42.5589 25.5 36.75C25.5 32.7718 27.0804 28.9564 29.8934 26.1434Z" fill="white" style="fill:white;fill-opacity:1;"/>
</svg>
