<svg width="80" height="80" viewBox="0 0 80 80" fill="none" xmlns="http://www.w3.org/2000/svg">
<rect x="1.5" y="1.5" width="77" height="77" rx="8.5" stroke="white" style="stroke:white;stroke-opacity:1;" stroke-width="3"/>
<path fill-rule="evenodd" clip-rule="evenodd" d="M19.8751 29.2175C19.8748 29.236 19.8748 29.2545 19.875 29.273V51.75C19.875 54.848 22.402 57.375 25.5 57.375H55.5C58.5981 57.375 61.125 54.848 61.125 51.75V29.2732C61.1253 29.2545 61.1253 29.2359 61.1249 29.2172C61.1072 26.1341 58.5871 23.625 55.5 23.625H25.5C22.4129 23.625 19.8927 26.1343 19.8751 29.2175ZM23.8249 28.4136C24.135 27.8005 24.7726 27.375 25.5 27.375H55.5C56.2275 27.375 56.8651 27.8005 57.1752 28.4136L40.5 40.0863L23.8249 28.4136ZM57.375 32.8512V51.75C57.375 52.777 56.527 53.625 55.5 53.625H25.5C24.4731 53.625 23.625 52.777 23.625 51.75V32.8512L39.4248 43.9111C40.0704 44.363 40.9297 44.363 41.5753 43.9111L57.375 32.8512Z" fill="white" style="fill:white;fill-opacity:1;"/>
</svg>
