<svg width="30" height="31" viewBox="0 0 30 31" fill="none" xmlns="http://www.w3.org/2000/svg">
<g clip-path="url(#clip0_48_3941)">
<path d="M21.497 13.5507C21.6627 13.7164 21.937 13.7164 22.1027 13.5507L29.1312 6.55076C29.2969 6.38505 29.2969 6.11076 29.1312 5.94505C29.0455 5.85934 28.9369 5.81934 28.8284 5.81934C28.7198 5.81934 28.6112 5.85934 28.5255 5.94505L21.497 12.945C21.3256 13.1164 21.3256 13.385 21.497 13.5507Z" fill="black" style="fill:black;fill-opacity:1;"/>
<path d="M16.4229 9.31104L24.1657 1.60252C24.3314 1.4368 24.3314 1.16252 24.1657 0.996807C24.08 0.911094 23.9714 0.871094 23.8628 0.871094C23.7543 0.871094 23.6457 0.911094 23.56 0.996807L15.8172 8.70533C15.6514 8.87105 15.6514 9.14533 15.8172 9.31104C15.9829 9.47676 16.2572 9.48247 16.4229 9.31104Z" fill="black" style="fill:black;fill-opacity:1;"/>
<path d="M-0.0513513 29.6536C-0.0513513 29.7793 0.00579119 29.8936 0.102933 29.9736C0.200076 30.0536 0.325789 30.0879 0.451503 30.0651C5.55433 29.1679 10.0914 25.5222 13.0057 22.6194L20.7428 14.9109C20.9085 14.7451 20.9085 14.4709 20.7428 14.3051C20.5771 14.1394 20.3028 14.1394 20.1371 14.3051L13.9428 20.4708C13.9886 20.1908 14.0057 19.9051 13.9943 19.6194C13.96 18.648 13.5943 17.7508 12.9657 17.088C12.3829 16.4766 11.5029 16.0194 10.4114 16.0194C10.1543 16.0194 9.88002 16.048 9.60002 16.0994L15.04 10.6709C15.2057 10.5052 15.2057 10.2309 15.04 10.0652C14.9543 9.97945 14.8457 9.93945 14.7371 9.93945C14.6286 9.93945 14.52 9.97945 14.4343 10.0652L6.89146 17.5908C4.28005 20.1965 2.62863 22.7794 1.70864 24.4879C0.577216 26.5679 -0.0799226 28.4993 -0.0513513 29.6536ZM7.50289 18.2023L8.00003 17.7108C9.69145 16.6137 11.3143 16.6023 12.3486 17.6823C13.2457 18.6251 13.5429 20.4251 12.3714 22.0422C9.65145 24.7451 5.49147 28.1051 0.840072 29.1165C1.15436 26.9051 3.47434 22.2137 7.50289 18.2023Z" fill="black" style="fill:black;fill-opacity:1;"/>
<path d="M9.94851 18.4424C9.42851 18.4424 8.85137 18.6652 8.31423 19.1967C6.18853 21.3224 3.37141 25.3223 3.07427 26.4366C3.03427 26.5852 3.07427 26.7452 3.18284 26.8538C3.29141 26.9623 3.45141 27.0023 3.59998 26.9623C4.71426 26.6652 8.73137 23.8595 10.8628 21.7395C11.4914 21.1109 11.6228 20.5052 11.6228 20.1109C11.6228 19.6595 11.4514 19.2367 11.1371 18.9281C10.8399 18.6252 10.4171 18.4424 9.94851 18.4424ZM10.2571 21.1338C8.64566 22.7395 5.98853 24.6766 4.43426 25.6081C5.36568 24.0595 7.30853 21.4195 8.91994 19.8138C9.57137 19.1681 10.2114 19.2195 10.5314 19.5395C10.6799 19.6881 10.7656 19.8938 10.7656 20.1167C10.7656 20.3452 10.6742 20.7167 10.2571 21.1338Z" fill="black" style="fill:black;fill-opacity:1;"/>
</g>
<defs>
<clipPath id="clip0_48_3941">
<rect width="29.257" height="29.257" fill="white" style="fill:white;fill-opacity:1;" transform="translate(0 0.871094)"/>
</clipPath>
</defs>
</svg>
