<svg width="25" height="25" viewBox="0 0 25 25" fill="none" xmlns="http://www.w3.org/2000/svg">
<g clip-path="url(#clip0_259_951)">
<path d="M18.3691 10.835C18.5107 10.9766 18.7451 10.9766 18.8867 10.835L24.8926 4.85352C25.0342 4.71191 25.0342 4.47754 24.8926 4.33594C24.8193 4.2627 24.7266 4.22852 24.6338 4.22852C24.541 4.22852 24.4482 4.2627 24.375 4.33594L18.3691 10.3174C18.2227 10.4639 18.2227 10.6934 18.3691 10.835Z" fill="white" style="fill:white;fill-opacity:1;"/>
<path d="M14.0332 7.21191L20.6494 0.625C20.791 0.483398 20.791 0.249023 20.6494 0.107422C20.5762 0.0341797 20.4834 0 20.3906 0C20.2979 0 20.2051 0.0341797 20.1318 0.107422L13.5156 6.69434C13.374 6.83594 13.374 7.07031 13.5156 7.21191C13.6572 7.35352 13.8916 7.3584 14.0332 7.21191Z" fill="white" style="fill:white;fill-opacity:1;"/>
<path d="M-0.0439437 24.5947C-0.0439437 24.7021 0.00488446 24.7998 0.0878923 24.8682C0.1709 24.9365 0.278322 24.9658 0.385744 24.9463C4.7461 24.1797 8.62305 21.0645 11.1133 18.584L17.7246 11.9971C17.8662 11.8555 17.8662 11.6211 17.7246 11.4795C17.583 11.3379 17.3486 11.3379 17.207 11.4795L11.9141 16.748C11.9531 16.5088 11.9678 16.2646 11.958 16.0205C11.9287 15.1904 11.6162 14.4238 11.0791 13.8574C10.5811 13.335 9.8291 12.9443 8.89649 12.9443C8.67676 12.9443 8.44238 12.9687 8.20313 13.0127L12.8516 8.37402C12.9932 8.23242 12.9932 7.99805 12.8516 7.85645C12.7783 7.7832 12.6855 7.74902 12.5928 7.74902C12.5 7.74902 12.4072 7.7832 12.334 7.85645L5.88867 14.2871C3.65723 16.5137 2.2461 18.7207 1.45996 20.1807C0.493166 21.958 -0.0683577 23.6084 -0.0439437 24.5947ZM6.41113 14.8096L6.83594 14.3896C8.28125 13.4521 9.66797 13.4424 10.5518 14.3652C11.3184 15.1709 11.5723 16.709 10.5713 18.0908C8.24707 20.4004 4.69238 23.2715 0.717775 24.1357C0.98633 22.2461 2.96875 18.2373 6.41113 14.8096Z" fill="white" style="fill:white;fill-opacity:1;"/>
<path d="M8.50098 15.0146C8.05665 15.0146 7.56348 15.2051 7.1045 15.6592C5.28809 17.4756 2.88086 20.8936 2.62696 21.8457C2.59278 21.9727 2.62696 22.1094 2.71973 22.2021C2.8125 22.2949 2.94922 22.3291 3.07618 22.2949C4.02832 22.041 7.46094 19.6436 9.28223 17.832C9.81934 17.2949 9.93164 16.7773 9.93164 16.4404C9.93164 16.0547 9.78516 15.6934 9.51661 15.4297C9.2627 15.1709 8.90137 15.0146 8.50098 15.0146ZM8.76465 17.3145C7.3877 18.6865 5.11719 20.3418 3.78907 21.1377C4.58497 19.8145 6.24512 17.5586 7.62208 16.1865C8.17872 15.6348 8.72559 15.6787 8.99903 15.9521C9.12598 16.0791 9.19922 16.2549 9.19922 16.4453C9.19922 16.6406 9.1211 16.958 8.76465 17.3145Z" fill="white" style="fill:white;fill-opacity:1;"/>
</g>
<defs>
<clipPath id="clip0_259_951">
<rect width="25" height="25" fill="white" style="fill:white;fill-opacity:1;"/>
</clipPath>
</defs>
</svg>
