<svg width="80" height="80" viewBox="0 0 80 80" fill="none" xmlns="http://www.w3.org/2000/svg">
<rect x="1.5" y="1.5" width="77" height="77" rx="8.5" stroke="white" style="stroke:white;stroke-opacity:1;" stroke-width="3"/>
<path d="M42.375 29.25C42.375 28.2145 41.5355 27.375 40.5 27.375C39.4645 27.375 38.625 28.2145 38.625 29.25V40.5C38.625 41.2102 39.0263 41.8594 39.6615 42.1771L47.1615 45.9271C48.0877 46.3902 49.2139 46.0147 49.6771 45.0885C50.1402 44.1623 49.7647 43.0361 48.8385 42.5729L42.375 39.3412V29.25Z" fill="white" style="fill:white;fill-opacity:1;"/>
<path fill-rule="evenodd" clip-rule="evenodd" d="M40.5 19.875C29.1091 19.875 19.875 29.1091 19.875 40.5C19.875 51.8909 29.1091 61.125 40.5 61.125C51.8909 61.125 61.125 51.8909 61.125 40.5C61.125 29.1091 51.8909 19.875 40.5 19.875ZM23.625 40.5C23.625 31.1802 31.1802 23.625 40.5 23.625C49.8198 23.625 57.375 31.1802 57.375 40.5C57.375 49.8198 49.8198 57.375 40.5 57.375C31.1802 57.375 23.625 49.8198 23.625 40.5Z" fill="white" style="fill:white;fill-opacity:1;"/>
</svg>
