<svg width="80" height="80" viewBox="0 0 80 80" fill="none" xmlns="http://www.w3.org/2000/svg">
<rect x="1.5" y="1.5" width="77" height="77" rx="8.5" stroke="white" style="stroke:white;stroke-opacity:1;" stroke-width="3"/>
<path d="M59.25 49.725V55.35C59.2521 55.8722 59.1452 56.3891 58.936 56.8675C58.7268 57.346 58.4199 57.7755 58.0351 58.1285C57.6504 58.4815 57.1961 58.7503 56.7014 58.9176C56.2067 59.0849 55.6826 59.147 55.1625 59.1C49.3928 58.4731 43.8506 56.5015 38.9813 53.3438C34.4509 50.465 30.61 46.6241 27.7313 42.0938C24.5625 37.2023 22.5905 31.6331 21.975 25.8375C21.9281 25.319 21.9898 24.7964 22.1559 24.3031C22.3221 23.8097 22.5892 23.3563 22.9402 22.9718C23.2912 22.5873 23.7184 22.2801 24.1946 22.0697C24.6708 21.8594 25.1856 21.7505 25.7063 21.75H31.3313C32.2412 21.7411 33.1234 22.0633 33.8133 22.6566C34.5032 23.25 34.9539 24.074 35.0813 24.975C35.3187 26.7751 35.759 28.5426 36.3938 30.2438C36.646 30.9149 36.7006 31.6442 36.5511 32.3454C36.4015 33.0466 36.0541 33.6902 35.55 34.2L33.1688 36.5813C35.8379 41.2754 39.7246 45.1621 44.4188 47.8313L46.8 45.45C47.3098 44.9459 47.9534 44.5985 48.6546 44.4489C49.3558 44.2994 50.0851 44.354 50.7562 44.6063C52.4574 45.241 54.2249 45.6813 56.025 45.9188C56.9358 46.0473 57.7676 46.506 58.3622 47.2078C58.9569 47.9096 59.2728 48.8055 59.25 49.725Z" stroke="white" style="stroke:white;stroke-opacity:1;" stroke-width="3" stroke-linecap="round" stroke-linejoin="round"/>
</svg>
