<svg width="25" height="25" viewBox="0 0 25 25" fill="none" xmlns="http://www.w3.org/2000/svg">
<g clip-path="url(#clip0_259_1012)">
<path d="M2.02521 23.2277C1.93976 23.2278 1.85664 23.1998 1.78858 23.1481C1.72053 23.0965 1.6713 23.0239 1.64845 22.9415C1.62559 22.8592 1.63037 22.7716 1.66204 22.6923C1.69372 22.6129 1.75055 22.5461 1.82382 22.5021L3.20472 21.6736C3.2487 21.6472 3.29745 21.6297 3.34819 21.6222C3.39893 21.6146 3.45066 21.6171 3.50043 21.6295C3.5502 21.642 3.59703 21.6641 3.63825 21.6946C3.67948 21.7251 3.71428 21.7635 3.74068 21.8075C3.76708 21.8515 3.78456 21.9002 3.79212 21.951C3.79968 22.0017 3.79717 22.0534 3.78474 22.1032C3.7723 22.153 3.75019 22.1998 3.71966 22.241C3.68912 22.2822 3.65077 22.317 3.60679 22.3434L2.22587 23.172C2.16528 23.2084 2.09592 23.2277 2.02521 23.2277Z" fill="white" style="fill:white;fill-opacity:1;"/>
<path d="M1.74829 22.9515C1.67919 22.9514 1.61134 22.933 1.55167 22.8982C1.492 22.8633 1.44264 22.8133 1.40863 22.7531C1.37461 22.693 1.35717 22.6249 1.35807 22.5558C1.35896 22.4867 1.37817 22.4191 1.41374 22.3598L2.24229 20.9789C2.2956 20.8901 2.38203 20.8261 2.48254 20.801C2.58305 20.7758 2.68942 20.7917 2.77825 20.845C2.86708 20.8983 2.93109 20.9847 2.9562 21.0853C2.98131 21.1858 2.96547 21.2921 2.91215 21.381L2.0836 22.7619C2.04889 22.8198 1.99974 22.8677 1.94097 22.901C1.8822 22.9342 1.8158 22.9516 1.74829 22.9515Z" fill="white" style="fill:white;fill-opacity:1;"/>
<path d="M2.02484 23.2277C1.97353 23.2277 1.92272 23.2177 1.87533 23.198C1.82793 23.1784 1.78489 23.1496 1.74866 23.1132L1.47249 22.8371C1.43622 22.8008 1.40745 22.7577 1.38782 22.7103C1.3682 22.663 1.35809 22.6122 1.35809 22.5609C1.35809 22.5096 1.3682 22.4588 1.38782 22.4114C1.40745 22.364 1.43622 22.321 1.47249 22.2847C1.50876 22.2484 1.55182 22.2196 1.59921 22.2C1.64659 22.1804 1.69738 22.1703 1.74868 22.1703C1.79997 22.1703 1.85076 22.1804 1.89815 22.2C1.94553 22.2196 1.98859 22.2484 2.02486 22.2847L2.30103 22.5609C2.35564 22.6155 2.39283 22.6851 2.4079 22.7608C2.42296 22.8366 2.41523 22.9151 2.38567 22.9865C2.35611 23.0579 2.30606 23.1189 2.24184 23.1618C2.17761 23.2047 2.10208 23.2277 2.02484 23.2277Z" fill="white" style="fill:white;fill-opacity:1;"/>
<path d="M0.39103 24.5854C0.313784 24.5853 0.238277 24.5624 0.174054 24.5195C0.109831 24.4766 0.0597769 24.4156 0.0302183 24.3442C0.000659729 24.2728 -0.00707581 24.1943 0.00798965 24.1185C0.0230551 24.0428 0.0602451 23.9732 0.114858 23.9186L1.6106 22.4228C1.68385 22.3496 1.7832 22.3084 1.88679 22.3084C1.99037 22.3084 2.08972 22.3496 2.16297 22.4228C2.23622 22.4961 2.27737 22.5954 2.27737 22.699C2.27737 22.8026 2.23622 22.9019 2.16297 22.9752L0.667202 24.4709C0.630978 24.5072 0.587932 24.5361 0.540537 24.5557C0.493142 24.5753 0.442333 24.5854 0.39103 24.5854Z" fill="white" style="fill:white;fill-opacity:1;"/>
<path d="M3.40574 22.3991C3.32849 22.3991 3.25299 22.3762 3.18876 22.3333C3.12454 22.2904 3.07449 22.2294 3.04493 22.158C3.01537 22.0866 3.00763 22.0081 3.0227 21.9323C3.03776 21.8566 3.07495 21.787 3.12957 21.7323L5.33943 19.5225C5.37562 19.4858 5.41869 19.4567 5.46618 19.4368C5.51366 19.4168 5.56462 19.4065 5.61612 19.4063C5.66762 19.4062 5.71864 19.4162 5.76625 19.4358C5.81386 19.4555 5.85711 19.4843 5.89353 19.5207C5.92994 19.5572 5.9588 19.6004 5.97843 19.648C5.99806 19.6956 6.00808 19.7467 6.00792 19.7982C6.00776 19.8497 5.99741 19.9006 5.97748 19.9481C5.95755 19.9956 5.92842 20.0387 5.89177 20.0748L3.68192 22.2847C3.6457 22.321 3.60265 22.3498 3.55525 22.3695C3.50786 22.3891 3.45704 22.3992 3.40574 22.3991Z" fill="white" style="fill:white;fill-opacity:1;"/>
<path d="M2.57719 21.5706C2.49994 21.5706 2.42443 21.5476 2.36021 21.5047C2.29599 21.4618 2.24593 21.4008 2.21638 21.3294C2.18682 21.2581 2.17908 21.1795 2.19415 21.1038C2.20921 21.028 2.2464 20.9584 2.30102 20.9038L4.51049 18.6939C4.54676 18.6577 4.58981 18.6289 4.6372 18.6093C4.68459 18.5896 4.73538 18.5795 4.78667 18.5795C4.83796 18.5795 4.88875 18.5896 4.93614 18.6093C4.98353 18.6289 5.02659 18.6577 5.06286 18.6939C5.09912 18.7302 5.12789 18.7733 5.14752 18.8206C5.16715 18.868 5.17725 18.9188 5.17725 18.9701C5.17725 19.0214 5.16715 19.0722 5.14752 19.1196C5.12789 19.167 5.09912 19.21 5.06286 19.2463L2.85337 21.4561C2.81715 21.4925 2.7741 21.5213 2.7267 21.5409C2.6793 21.5606 2.62849 21.5706 2.57719 21.5706Z" fill="white" style="fill:white;fill-opacity:1;"/>
<path d="M5.89181 20.4655C5.78822 20.4654 5.68889 20.4243 5.61564 20.351L4.23433 18.9701C4.18304 18.9188 4.14706 18.8542 4.13041 18.7836C4.11377 18.713 4.11712 18.6391 4.1401 18.5703L4.69283 16.9132C4.71193 16.8557 4.74419 16.8034 4.78706 16.7606L8.10127 13.446C8.14409 13.4032 8.19635 13.3709 8.25385 13.3518L9.91134 12.7992C9.98016 12.7762 10.0541 12.7728 10.1247 12.7894C10.1953 12.8061 10.2599 12.8422 10.3111 12.8937L11.6921 14.2746C11.7433 14.3259 11.7793 14.3905 11.796 14.4611C11.8126 14.5317 11.8093 14.6056 11.7863 14.6744L11.2339 16.3319C11.2148 16.3894 11.1826 16.4416 11.1397 16.4845L7.8251 19.7987C7.78237 19.8417 7.73009 19.8739 7.67251 19.8929L6.0154 20.4453C5.97559 20.4587 5.93383 20.4655 5.89181 20.4655ZM4.95759 18.5883L5.99709 19.6278L7.33796 19.1811L10.5221 15.9973L10.9688 14.6564L9.92931 13.6169L8.58844 14.0636L5.40467 17.2478L4.95759 18.5883Z" fill="white" style="fill:white;fill-opacity:1;"/>
<path d="M10.017 9.71128C9.96573 9.71134 9.91492 9.70126 9.86752 9.68161C9.82013 9.66197 9.77708 9.63316 9.74086 9.59683L8.35956 8.21572C8.32328 8.17946 8.2945 8.1364 8.27486 8.08901C8.25522 8.04162 8.24512 7.99083 8.24512 7.93953C8.24512 7.88824 8.25522 7.83744 8.27486 7.79005C8.2945 7.74266 8.32328 7.69961 8.35956 7.66335L10.2932 5.72987C10.3295 5.69358 10.3725 5.6648 10.4199 5.64516C10.4673 5.62552 10.5181 5.61541 10.5694 5.61542C10.6207 5.61541 10.6715 5.62552 10.7189 5.64516C10.7663 5.6648 10.8093 5.69358 10.8456 5.72987L12.2265 7.11099C12.2628 7.14725 12.2916 7.19031 12.3112 7.2377C12.3308 7.28509 12.3409 7.33588 12.3409 7.38718C12.3409 7.43847 12.3308 7.48926 12.3112 7.53665C12.2916 7.58404 12.2628 7.6271 12.2265 7.66336L10.2932 9.59684C10.257 9.63317 10.2139 9.66198 10.1665 9.68162C10.1191 9.70126 10.0683 9.71134 10.017 9.71128ZM9.1881 7.93955L10.017 8.76829L11.398 7.38718L10.5694 6.55843L9.1881 7.93955Z" fill="white" style="fill:white;fill-opacity:1;"/>
<path d="M12.2265 8.60653C12.1752 8.60659 12.1243 8.59651 12.077 8.57686C12.0296 8.55722 11.9865 8.52841 11.9503 8.49208L11.3979 7.93953C11.3616 7.90327 11.3329 7.86021 11.3132 7.81282C11.2936 7.76543 11.2835 7.71464 11.2835 7.66335C11.2835 7.61206 11.2936 7.56127 11.3132 7.51388C11.3329 7.46649 11.3616 7.42344 11.3979 7.38717C11.4342 7.3509 11.4772 7.32213 11.5246 7.3025C11.572 7.28287 11.6228 7.27277 11.6741 7.27277C11.7254 7.27277 11.7762 7.28287 11.8236 7.3025C11.8709 7.32213 11.914 7.3509 11.9503 7.38716L12.5026 7.93972C12.5573 7.99435 12.5944 8.06395 12.6095 8.13971C12.6246 8.21547 12.6168 8.294 12.5873 8.36537C12.5577 8.43674 12.5077 8.49774 12.4435 8.54066C12.3792 8.58358 12.3037 8.60651 12.2265 8.60653Z" fill="white" style="fill:white;fill-opacity:1;"/>
<path d="M13.884 13.0257C13.8327 13.0258 13.7819 13.0158 13.7345 12.9962C13.6871 12.9766 13.6441 12.9479 13.6078 12.9116L10.017 9.32064C9.9438 9.24739 9.90265 9.14804 9.90265 9.04445C9.90265 8.94086 9.9438 8.84152 10.017 8.76827C10.0903 8.69502 10.1896 8.65387 10.2932 8.65387C10.3968 8.65387 10.4962 8.69502 10.5694 8.76827L14.1602 12.359C14.2149 12.4136 14.2521 12.4832 14.2672 12.559C14.2823 12.6348 14.2746 12.7133 14.245 12.7847C14.2155 12.8561 14.1654 12.9171 14.1011 12.96C14.0368 13.0029 13.9613 13.0257 13.884 13.0257Z" fill="white" style="fill:white;fill-opacity:1;"/>
<path d="M11.1397 14.6652C11.0884 14.6653 11.0376 14.6552 10.9902 14.6355C10.9428 14.6159 10.8997 14.5871 10.8635 14.5508L10.035 13.7222C9.99869 13.6859 9.96991 13.6429 9.95027 13.5955C9.93064 13.5481 9.92053 13.4973 9.92053 13.446C9.92053 13.3947 9.93064 13.3439 9.95027 13.2965C9.96991 13.2492 9.99869 13.2061 10.035 13.1698L12.2269 10.9779C12.2632 10.9416 12.3062 10.9128 12.3536 10.8932C12.401 10.8736 12.4518 10.8635 12.5031 10.8635C12.5544 10.8635 12.6052 10.8736 12.6525 10.8932C12.6999 10.9128 12.743 10.9416 12.7792 10.9779L13.6078 11.8067C13.6441 11.8429 13.6729 11.886 13.6925 11.9334C13.7121 11.9808 13.7222 12.0315 13.7222 12.0828C13.7222 12.1341 13.7121 12.1849 13.6925 12.2323C13.6729 12.2797 13.6441 12.3228 13.6078 12.359L11.4159 14.5508C11.3797 14.5871 11.3366 14.6159 11.2892 14.6356C11.2418 14.6552 11.191 14.6653 11.1397 14.6652ZM10.8635 13.446L11.1397 13.7222L12.7793 12.0828L12.5031 11.8065L10.8635 13.446Z" fill="white" style="fill:white;fill-opacity:1;"/>
<path d="M13.332 12.4737C13.2428 12.4738 13.1562 12.4433 13.0867 12.3874C13.0171 12.3314 12.9689 12.2533 12.9499 12.1661C12.9309 12.0789 12.9423 11.9879 12.9823 11.9081C13.0222 11.8283 13.0883 11.7646 13.1695 11.7275L17.656 9.67962C17.7026 9.65833 17.753 9.64644 17.8043 9.64462C17.8555 9.64281 17.9067 9.65111 17.9547 9.66905C18.0028 9.68699 18.0468 9.71422 18.0843 9.74919C18.1219 9.78415 18.1521 9.82617 18.1734 9.87283C18.1947 9.91949 18.2066 9.96989 18.2084 10.0212C18.2102 10.0724 18.2019 10.1235 18.184 10.1716C18.1661 10.2196 18.1388 10.2637 18.1039 10.3012C18.0689 10.3387 18.0269 10.369 17.9802 10.3903L13.4938 12.4382C13.443 12.4615 13.3878 12.4736 13.332 12.4737Z" fill="white" style="fill:white;fill-opacity:1;"/>
<path d="M14.4363 8.60654H12.2265C12.1229 8.60654 12.0235 8.56538 11.9503 8.49213C11.877 8.41887 11.8359 8.31951 11.8359 8.21591C11.8359 8.11231 11.877 8.01296 11.9503 7.9397C12.0235 7.86644 12.1229 7.82529 12.2265 7.82529H14.4363C14.5399 7.82529 14.6393 7.86644 14.7126 7.9397C14.7858 8.01296 14.827 8.11231 14.827 8.21591C14.827 8.31951 14.7858 8.41887 14.7126 8.49213C14.6393 8.56538 14.5399 8.60654 14.4363 8.60654Z" fill="white" style="fill:white;fill-opacity:1;"/>
<path d="M20.742 13.3495C20.6907 13.3496 20.6399 13.3395 20.5925 13.3199C20.5451 13.3002 20.5021 13.2714 20.4659 13.2351L17.5419 10.3111C17.5056 10.2748 17.4768 10.2318 17.4572 10.1844C17.4376 10.137 17.4275 10.0862 17.4275 10.0349C17.4275 9.98364 17.4376 9.93285 17.4572 9.88546C17.4768 9.83807 17.5056 9.79502 17.5419 9.75875C17.5782 9.72248 17.6212 9.69371 17.6686 9.67408C17.716 9.65445 17.7668 9.64435 17.8181 9.64435C17.8694 9.64435 17.9202 9.65445 17.9675 9.67408C18.0149 9.69371 18.058 9.72248 18.0943 9.75875L21.0182 12.6827C21.0728 12.7373 21.11 12.8069 21.1251 12.8827C21.1402 12.9585 21.1324 13.037 21.1029 13.1084C21.0733 13.1797 21.0232 13.2407 20.959 13.2836C20.8948 13.3266 20.8193 13.3495 20.742 13.3495Z" fill="white" style="fill:white;fill-opacity:1;"/>
<path d="M23.5039 10.5873C23.4525 10.5874 23.4017 10.5773 23.3543 10.5577C23.3069 10.538 23.2639 10.5092 23.2277 10.4729L20.4658 7.71084C20.3926 7.63759 20.3514 7.53824 20.3514 7.43465C20.3514 7.33106 20.3926 7.23172 20.4658 7.15847C20.5391 7.08522 20.6384 7.04407 20.742 7.04407C20.8456 7.04407 20.945 7.08522 21.0182 7.15847L23.78 9.9205C23.8347 9.97513 23.8719 10.0447 23.8869 10.1205C23.902 10.1962 23.8942 10.2748 23.8647 10.3461C23.8351 10.4175 23.7851 10.4785 23.7209 10.5214C23.6566 10.5644 23.5811 10.5873 23.5039 10.5873Z" fill="white" style="fill:white;fill-opacity:1;"/>
<path d="M20.1892 13.9019C20.112 13.9019 20.0365 13.879 19.9723 13.836C19.908 13.7931 19.858 13.7321 19.8284 13.6607C19.7989 13.5894 19.7911 13.5109 19.8062 13.4351C19.8213 13.3593 19.8585 13.2897 19.9131 13.2351L23.7804 9.36814C23.8538 9.29558 23.9529 9.25502 24.0561 9.25531C24.1593 9.25561 24.2582 9.29673 24.3312 9.36971C24.4042 9.44268 24.4453 9.54157 24.4456 9.64478C24.4459 9.74798 24.4053 9.8471 24.3328 9.9205L20.4654 13.7875C20.4292 13.8238 20.3862 13.8526 20.3388 13.8722C20.2914 13.8919 20.2406 13.902 20.1892 13.9019Z" fill="white" style="fill:white;fill-opacity:1;"/>
<path d="M21.2944 7.27272C21.2171 7.2727 21.1416 7.24978 21.0774 7.20686C21.0132 7.16394 20.9631 7.10294 20.9336 7.03157C20.904 6.9602 20.8963 6.88167 20.9113 6.80591C20.9264 6.73015 20.9636 6.66055 21.0182 6.60592C21.2377 6.386 21.361 6.08798 21.361 5.77728C21.361 5.46657 21.2377 5.16855 21.0182 4.94863C20.9819 4.91236 20.9532 4.8693 20.9335 4.82192C20.9139 4.77453 20.9038 4.72374 20.9038 4.67245C20.9038 4.62115 20.9139 4.57036 20.9335 4.52298C20.9532 4.47559 20.9819 4.43253 21.0182 4.39626C21.0545 4.35999 21.0975 4.33122 21.1449 4.31159C21.1923 4.29196 21.2431 4.28186 21.2944 4.28186C21.3457 4.28186 21.3965 4.29196 21.4439 4.31159C21.4912 4.33122 21.5343 4.35999 21.5706 4.39626C21.9363 4.76283 22.1416 5.25949 22.1416 5.77728C22.1416 6.29507 21.9363 6.79172 21.5706 7.15829C21.5343 7.19462 21.4913 7.22343 21.4439 7.24307C21.3965 7.26271 21.3457 7.27278 21.2944 7.27272Z" fill="white" style="fill:white;fill-opacity:1;"/>
<path d="M20.742 7.82526C20.6648 7.82524 20.5893 7.80233 20.5251 7.7594C20.4608 7.71648 20.4108 7.65548 20.3812 7.58411C20.3517 7.51274 20.3439 7.43422 20.359 7.35845C20.3741 7.28269 20.4113 7.21309 20.4659 7.15847L21.0182 6.60591C21.0544 6.5693 21.0975 6.54021 21.145 6.5203C21.1925 6.5004 21.2434 6.49008 21.2949 6.48993C21.3464 6.48978 21.3974 6.49982 21.4449 6.51945C21.4925 6.53908 21.5358 6.56793 21.5722 6.60433C21.6086 6.64073 21.6374 6.68397 21.6571 6.73156C21.6767 6.77915 21.6867 6.83015 21.6866 6.88163C21.6864 6.93311 21.6761 6.98405 21.6562 7.03152C21.6363 7.079 21.6072 7.12207 21.5706 7.15827L21.0182 7.71082C20.982 7.74715 20.939 7.77597 20.8916 7.79561C20.8442 7.81525 20.7933 7.82532 20.742 7.82526Z" fill="white" style="fill:white;fill-opacity:1;"/>
<path d="M21.2944 5.06305C21.2172 5.06303 21.1417 5.04012 21.0774 4.99719C21.0132 4.95427 20.9632 4.89327 20.9336 4.8219C20.904 4.75053 20.8963 4.672 20.9114 4.59624C20.9264 4.52048 20.9636 4.45088 21.0182 4.39625L23.5043 1.91039C23.5405 1.87412 23.5836 1.84535 23.631 1.82572C23.6784 1.80609 23.7292 1.79599 23.7805 1.79599C23.8317 1.79599 23.8825 1.80609 23.9299 1.82572C23.9773 1.84535 24.0204 1.87412 24.0566 1.91039C24.0929 1.94666 24.1217 1.98971 24.1413 2.0371C24.1609 2.08449 24.171 2.13528 24.171 2.18657C24.171 2.23787 24.1609 2.28866 24.1413 2.33604C24.1217 2.38343 24.0929 2.42649 24.0566 2.46276L21.5706 4.94861C21.5344 4.98494 21.4913 5.01375 21.4439 5.03339C21.3965 5.05303 21.3457 5.06311 21.2944 5.06305Z" fill="white" style="fill:white;fill-opacity:1;"/>
<path d="M19.0845 4.51069C19.0073 4.51067 18.9318 4.48775 18.8675 4.44483C18.8033 4.4019 18.7533 4.3409 18.7237 4.26953C18.6941 4.19817 18.6864 4.11964 18.7015 4.04388C18.7165 3.96811 18.7537 3.89852 18.8083 3.84389L22.1229 0.529295C22.1591 0.492651 22.2022 0.463524 22.2497 0.443591C22.2971 0.423658 22.3481 0.413312 22.3996 0.413149C22.4511 0.412986 22.5021 0.423009 22.5497 0.44264C22.5973 0.462272 22.6406 0.491126 22.677 0.52754C22.7134 0.563954 22.7423 0.607211 22.7619 0.65482C22.7816 0.702429 22.7916 0.753451 22.7914 0.80495C22.7913 0.856448 22.7809 0.907406 22.761 0.954892C22.7411 1.00238 22.7119 1.04545 22.6753 1.08164L19.3607 4.39623C19.3245 4.43256 19.2814 4.46138 19.234 4.48102C19.1866 4.50066 19.1358 4.51074 19.0845 4.51069Z" fill="white" style="fill:white;fill-opacity:1;"/>
<path d="M23.7805 2.57721C23.7292 2.57727 23.6783 2.56719 23.631 2.54755C23.5836 2.52791 23.5405 2.49909 23.5043 2.46276L22.123 1.08164C22.0505 1.00824 22.01 0.909134 22.0103 0.805971C22.0106 0.702808 22.0518 0.603965 22.1247 0.531019C22.1977 0.458073 22.2965 0.41695 22.3997 0.416628C22.5028 0.416305 22.6019 0.45681 22.6753 0.529298L24.0567 1.9104C24.1113 1.96503 24.1485 2.03463 24.1635 2.11039C24.1786 2.18616 24.1709 2.26468 24.1413 2.33605C24.1117 2.40742 24.0617 2.46842 23.9975 2.51134C23.9332 2.55427 23.8577 2.5772 23.7805 2.57721Z" fill="white" style="fill:white;fill-opacity:1;"/>
<path d="M22.3991 3.95812C22.3478 3.95817 22.297 3.94809 22.2496 3.92845C22.2022 3.90881 22.1592 3.87999 22.123 3.84366L20.742 2.46276C20.6688 2.38951 20.6276 2.29016 20.6276 2.18657C20.6276 2.08298 20.6688 1.98364 20.742 1.91039C20.8153 1.83714 20.9146 1.79599 21.0182 1.79599C21.1218 1.79599 21.2211 1.83714 21.2944 1.91039L22.6753 3.29131C22.7299 3.34594 22.7671 3.41553 22.7822 3.49129C22.7972 3.56706 22.7895 3.64559 22.76 3.71695C22.7304 3.78832 22.6803 3.84932 22.6161 3.89225C22.5519 3.93517 22.4764 3.9581 22.3991 3.95812Z" fill="white" style="fill:white;fill-opacity:1;"/>
<path d="M15.5411 9.71126C15.4898 9.71132 15.439 9.70124 15.3916 9.6816C15.3442 9.66196 15.3011 9.63314 15.2649 9.59681L14.1602 8.49209C14.1239 8.45582 14.0951 8.41276 14.0755 8.36537C14.0559 8.31798 14.0458 8.2672 14.0458 8.2159C14.0458 8.16461 14.0559 8.11382 14.0755 8.06643C14.0951 8.01905 14.1239 7.97599 14.1602 7.93972C14.1964 7.90345 14.2395 7.87468 14.2869 7.85505C14.3343 7.83542 14.3851 7.82532 14.4364 7.82532C14.4877 7.82532 14.5384 7.83542 14.5858 7.85505C14.6332 7.87468 14.6763 7.90345 14.7125 7.93972L15.8173 9.04445C15.8719 9.09908 15.9091 9.16868 15.9242 9.24444C15.9392 9.3202 15.9315 9.39873 15.9019 9.4701C15.8724 9.54147 15.8223 9.60247 15.7581 9.64539C15.6939 9.68832 15.6183 9.71125 15.5411 9.71126Z" fill="white" style="fill:white;fill-opacity:1;"/>
<path d="M19.0845 6.16796C19.0073 6.16794 18.9318 6.14502 18.8676 6.1021C18.8033 6.05917 18.7533 5.99817 18.7237 5.92681C18.6942 5.85544 18.6864 5.77691 18.7015 5.70115C18.7166 5.62538 18.7538 5.55579 18.8084 5.50116C18.881 5.42868 18.9387 5.34257 18.978 5.24777C19.0174 5.15297 19.0376 5.05133 19.0376 4.94869C19.0376 4.84605 19.0174 4.74442 18.978 4.64962C18.9387 4.55482 18.881 4.46871 18.8084 4.39623C18.7721 4.35996 18.7433 4.3169 18.7237 4.26951C18.7041 4.22213 18.694 4.17134 18.694 4.12004C18.694 4.01645 18.7351 3.91711 18.8084 3.84386C18.8816 3.77061 18.981 3.72946 19.0846 3.72946C19.1881 3.72946 19.2875 3.77061 19.3607 3.84386C19.506 3.98887 19.6212 4.16109 19.6998 4.35067C19.7784 4.54024 19.8189 4.74346 19.8189 4.94869C19.8189 5.15393 19.7784 5.35714 19.6998 5.54672C19.6212 5.7363 19.506 5.90852 19.3607 6.05353C19.3245 6.08986 19.2815 6.11867 19.2341 6.13831C19.1867 6.15794 19.1358 6.16802 19.0845 6.16796Z" fill="white" style="fill:white;fill-opacity:1;"/>
<path d="M15.5411 9.71126C15.4638 9.71124 15.3883 9.68832 15.3241 9.6454C15.2599 9.60248 15.2098 9.54147 15.1802 9.47011C15.1507 9.39874 15.1429 9.32021 15.158 9.24445C15.1731 9.16869 15.2103 9.09909 15.2649 9.04446L18.8084 5.50118C18.8816 5.42793 18.9809 5.38678 19.0845 5.38678C19.1881 5.38678 19.2875 5.42793 19.3607 5.50118C19.434 5.57443 19.4751 5.67377 19.4751 5.77736C19.4751 5.88095 19.434 5.9803 19.3607 6.05355L15.8173 9.59683C15.781 9.63316 15.738 9.66197 15.6906 9.68161C15.6432 9.70125 15.5924 9.71132 15.5411 9.71126Z" fill="white" style="fill:white;fill-opacity:1;"/>
<path d="M14.7125 8.88273C14.6353 8.88271 14.5597 8.8598 14.4955 8.81687C14.4313 8.77395 14.3812 8.71295 14.3517 8.64158C14.3221 8.57021 14.3144 8.49168 14.3295 8.41592C14.3445 8.34016 14.3817 8.27056 14.4363 8.21593L18.8083 3.84389C18.8816 3.77064 18.9809 3.72949 19.0845 3.72949C19.1881 3.72949 19.2875 3.77064 19.3607 3.84389C19.434 3.91714 19.4751 4.01649 19.4751 4.12007C19.4751 4.22366 19.434 4.32301 19.3607 4.39626L14.9887 8.76829C14.9525 8.80462 14.9094 8.83343 14.862 8.85307C14.8146 8.87271 14.7638 8.88279 14.7125 8.88273Z" fill="white" style="fill:white;fill-opacity:1;"/>
<path d="M13.8836 8.60653C13.817 8.60648 13.7516 8.58943 13.6935 8.55698C13.6354 8.52453 13.5865 8.47777 13.5515 8.42114C13.5166 8.3645 13.4966 8.29987 13.4937 8.23337C13.4907 8.16687 13.5048 8.10072 13.5346 8.04119L14.6393 5.83133C14.6857 5.73878 14.7669 5.66842 14.8652 5.63574C14.9634 5.60305 15.0706 5.61069 15.1632 5.657C15.2559 5.7033 15.3263 5.78447 15.3591 5.88268C15.3919 5.98089 15.3844 6.0881 15.3382 6.18076L14.2334 8.39063C14.2009 8.45557 14.151 8.51018 14.0892 8.54832C14.0274 8.58645 13.9562 8.60661 13.8836 8.60653Z" fill="white" style="fill:white;fill-opacity:1;"/>
<path d="M12.7789 8.60653C12.7123 8.60648 12.6469 8.58943 12.5887 8.55698C12.5306 8.52454 12.4818 8.47778 12.4468 8.42114C12.4118 8.3645 12.3919 8.29987 12.3889 8.23337C12.386 8.16687 12.4 8.10072 12.4298 8.04119L14.6393 3.62166C14.6622 3.57577 14.694 3.53485 14.7328 3.50124C14.7715 3.46762 14.8165 3.44197 14.8652 3.42575C14.9139 3.40952 14.9652 3.40305 15.0164 3.40668C15.0676 3.41032 15.1176 3.424 15.1634 3.44695C15.2093 3.46989 15.2502 3.50165 15.2839 3.5404C15.3175 3.57916 15.3431 3.62416 15.3593 3.67283C15.3756 3.7215 15.3821 3.77289 15.3784 3.82407C15.3748 3.87524 15.3611 3.9252 15.3382 3.97109L13.1287 8.39063C13.0962 8.45557 13.0463 8.51018 12.9845 8.54832C12.9227 8.58646 12.8515 8.60661 12.7789 8.60653Z" fill="white" style="fill:white;fill-opacity:1;"/>
<path d="M7.54893 19.9131C7.49763 19.9131 7.44682 19.9031 7.39943 19.8834C7.35203 19.8638 7.30898 19.835 7.27276 19.7986L4.7871 17.313C4.71411 17.2397 4.67317 17.1404 4.67328 17.037C4.67339 16.9335 4.71453 16.8343 4.78768 16.7612C4.86083 16.688 4.96002 16.6469 5.06347 16.6468C5.16691 16.6467 5.26618 16.6876 5.33948 16.7606L7.82514 19.2463C7.87975 19.3009 7.91694 19.3705 7.932 19.4463C7.94707 19.522 7.93933 19.6006 7.90978 19.6719C7.88022 19.7433 7.83016 19.8043 7.76594 19.8472C7.70172 19.8901 7.62618 19.9131 7.54893 19.9131Z" fill="white" style="fill:white;fill-opacity:1;"/>
<path d="M8.65403 18.8084C8.60273 18.8084 8.55192 18.7984 8.50452 18.7787C8.45713 18.7591 8.41408 18.7303 8.37786 18.6939L5.8918 16.2079C5.85554 16.1716 5.82676 16.1286 5.80714 16.0812C5.78751 16.0338 5.7774 15.983 5.7774 15.9317C5.7774 15.8804 5.78751 15.8296 5.80714 15.7823C5.82676 15.7349 5.85554 15.6918 5.8918 15.6555C5.92807 15.6193 5.97113 15.5905 6.01852 15.5709C6.06591 15.5512 6.1167 15.5411 6.16799 15.5411C6.21928 15.5411 6.27007 15.5512 6.31746 15.5709C6.36484 15.5905 6.4079 15.6193 6.44417 15.6555L8.93021 18.1416C8.98482 18.1962 9.02201 18.2658 9.03708 18.3416C9.05214 18.4173 9.04441 18.4959 9.01485 18.5672C8.98529 18.6386 8.93524 18.6996 8.87101 18.7425C8.80679 18.7854 8.73128 18.8084 8.65403 18.8084Z" fill="white" style="fill:white;fill-opacity:1;"/>
<path d="M9.75877 17.7036C9.70746 17.7037 9.65665 17.6936 9.60926 17.674C9.56186 17.6543 9.51882 17.6255 9.48259 17.5892L6.99656 15.1031C6.924 15.0298 6.88343 14.9306 6.88373 14.8274C6.88402 14.7242 6.92515 14.6253 6.99813 14.5524C7.0711 14.4794 7.16999 14.4383 7.2732 14.438C7.3764 14.4377 7.47552 14.4782 7.54891 14.5508L10.0349 17.0368C10.0896 17.0915 10.1268 17.161 10.1418 17.2368C10.1569 17.3126 10.1491 17.3911 10.1196 17.4625C10.09 17.5338 10.04 17.5948 9.97575 17.6378C9.91153 17.6807 9.83601 17.7036 9.75877 17.7036Z" fill="white" style="fill:white;fill-opacity:1;"/>
<path d="M10.8635 16.5989C10.8122 16.599 10.7614 16.5889 10.714 16.5692C10.6666 16.5496 10.6235 16.5208 10.5873 16.4844L8.10128 13.9984C8.02803 13.9252 7.98688 13.8258 7.98688 13.7222C7.98688 13.6186 8.02803 13.5193 8.10128 13.446C8.17453 13.3728 8.27387 13.3316 8.37746 13.3316C8.48105 13.3316 8.5804 13.3728 8.65364 13.446L11.1397 15.9321C11.1943 15.9867 11.2315 16.0563 11.2466 16.1321C11.2616 16.2078 11.2539 16.2863 11.2243 16.3577C11.1948 16.4291 11.1447 16.4901 11.0805 16.533C11.0163 16.5759 10.9407 16.5989 10.8635 16.5989Z" fill="white" style="fill:white;fill-opacity:1;"/>
<path d="M21.8468 14.4543C21.7955 14.4543 21.7447 14.4443 21.6973 14.4246C21.6499 14.405 21.6068 14.3762 21.5706 14.3398L20.4659 13.2351C20.4296 13.1988 20.4008 13.1558 20.3812 13.1084C20.3615 13.061 20.3514 13.0102 20.3514 12.9589C20.3514 12.9076 20.3615 12.8568 20.3812 12.8094C20.4008 12.762 20.4296 12.719 20.4659 12.6827L21.2944 11.854C21.3691 11.7834 21.4679 11.7441 21.5706 11.7441C21.6733 11.7441 21.7722 11.7834 21.8468 11.854L22.9515 12.9589C22.9878 12.9952 23.0166 13.0382 23.0362 13.0856C23.0559 13.133 23.066 13.1838 23.066 13.2351C23.066 13.2864 23.0559 13.3372 23.0362 13.3846C23.0166 13.432 22.9878 13.475 22.9515 13.5113L22.123 14.3398C22.0867 14.3762 22.0437 14.405 21.9963 14.4246C21.9489 14.4443 21.8981 14.4543 21.8468 14.4543ZM21.2944 12.9589L21.8468 13.5113L22.123 13.2351L21.5706 12.6827L21.2944 12.9589Z" fill="white" style="fill:white;fill-opacity:1;"/>
<path d="M23.7805 12.5208C23.7292 12.5209 23.6783 12.5108 23.631 12.4911C23.5836 12.4715 23.5405 12.4427 23.5043 12.4063L22.3992 11.3016C22.3629 11.2653 22.3341 11.2223 22.3145 11.1749C22.2948 11.1275 22.2847 11.0767 22.2847 11.0254C22.2847 10.9741 22.2948 10.9233 22.3145 10.8759C22.3341 10.8286 22.3629 10.7855 22.3992 10.7492L23.2277 9.92049C23.3023 9.84985 23.4012 9.81049 23.5039 9.81049C23.6066 9.81049 23.7055 9.84985 23.7801 9.92049L24.8852 11.0254C24.9215 11.0617 24.9503 11.1047 24.9699 11.1521C24.9895 11.1995 24.9996 11.2503 24.9996 11.3016C24.9996 11.3529 24.9895 11.4037 24.9699 11.4511C24.9503 11.4985 24.9215 11.5415 24.8852 11.5778L24.0567 12.4064C24.0204 12.4427 23.9774 12.4715 23.93 12.4911C23.8826 12.5108 23.8318 12.5209 23.7805 12.5208ZM23.2277 11.0254L23.7805 11.5778L24.0566 11.3016L23.5039 10.7491L23.2277 11.0254Z" fill="white" style="fill:white;fill-opacity:1;"/>
</g>
<defs>
<clipPath id="clip0_259_1012">
<rect width="25" height="25" fill="white" style="fill:white;fill-opacity:1;"/>
</clipPath>
</defs>
</svg>
