<svg width="34" height="34" viewBox="0 0 34 34" fill="none" xmlns="http://www.w3.org/2000/svg">
<g clip-path="url(#clip0_50_524)">
<path d="M2.75429 31.5896C2.63807 31.5897 2.52502 31.5517 2.43247 31.4814C2.33992 31.4111 2.27297 31.3124 2.24189 31.2004C2.2108 31.0885 2.2173 30.9694 2.26038 30.8614C2.30346 30.7535 2.38075 30.6627 2.48039 30.6029L4.35842 29.476C4.41823 29.4401 4.48454 29.4163 4.55354 29.4061C4.62255 29.3958 4.6929 29.3992 4.76059 29.4161C4.82827 29.433 4.89196 29.4631 4.94803 29.5046C5.00409 29.5461 5.05142 29.5983 5.08733 29.6581C5.12323 29.7179 5.147 29.7842 5.15728 29.8532C5.16756 29.9223 5.16415 29.9926 5.14724 30.0603C5.13033 30.128 5.10026 30.1917 5.05873 30.2477C5.01721 30.3038 4.96505 30.3511 4.90523 30.387L3.02718 31.5139C2.94478 31.5634 2.85044 31.5896 2.75429 31.5896Z" fill="black" style="fill:black;fill-opacity:1;"/>
<path d="M2.37767 31.214C2.28369 31.2139 2.19142 31.1889 2.11027 31.1415C2.02912 31.0941 1.96199 31.026 1.91573 30.9442C1.86948 30.8624 1.84575 30.7698 1.84697 30.6759C1.84819 30.5819 1.87431 30.4899 1.92268 30.4093L3.04951 28.5313C3.12202 28.4105 3.23955 28.3234 3.37625 28.2893C3.51295 28.2551 3.65762 28.2767 3.77842 28.3492C3.89923 28.4217 3.98629 28.5392 4.02044 28.6759C4.05459 28.8126 4.03304 28.9573 3.96052 29.0781L2.8337 30.9562C2.78649 31.0349 2.71965 31.1001 2.63972 31.1453C2.55979 31.1905 2.46949 31.2142 2.37767 31.214Z" fill="black" style="fill:black;fill-opacity:1;"/>
<path d="M2.75375 31.5897C2.68398 31.5897 2.61488 31.576 2.55042 31.5493C2.48597 31.5226 2.42742 31.4834 2.37816 31.434L2.00257 31.0584C1.95324 31.0091 1.91411 30.9505 1.88742 30.8861C1.86072 30.8216 1.84698 30.7526 1.84698 30.6828C1.84698 30.613 1.86072 30.544 1.88742 30.4795C1.91411 30.4151 1.95324 30.3565 2.00257 30.3072C2.05189 30.2579 2.11045 30.2187 2.1749 30.192C2.23935 30.1654 2.30842 30.1516 2.37818 30.1516C2.44793 30.1516 2.51701 30.1654 2.58146 30.192C2.6459 30.2187 2.70446 30.2579 2.75379 30.3072L3.12938 30.6828C3.20365 30.7571 3.25423 30.8517 3.27472 30.9548C3.29521 31.0578 3.28469 31.1646 3.24449 31.2617C3.20429 31.3587 3.13622 31.4417 3.04887 31.5001C2.96153 31.5584 2.85881 31.5896 2.75375 31.5897Z" fill="black" style="fill:black;fill-opacity:1;"/>
<path d="M0.531808 33.4361C0.426753 33.4361 0.324064 33.4049 0.236721 33.3466C0.149378 33.2882 0.081304 33.2052 0.0411043 33.1082C0.000904556 33.0111 -0.00961577 32.9043 0.0108732 32.8013C0.0313623 32.6982 0.0819407 32.6036 0.156214 32.5293L2.19042 30.4951C2.29004 30.3954 2.42515 30.3395 2.56604 30.3395C2.70692 30.3395 2.84203 30.3954 2.94165 30.4951C3.04126 30.5947 3.09723 30.7298 3.09723 30.8707C3.09723 31.0116 3.04126 31.1467 2.94164 31.2463L0.907402 33.2805C0.858137 33.3299 0.799594 33.3691 0.735137 33.3958C0.67068 33.4225 0.60158 33.4362 0.531808 33.4361Z" fill="black" style="fill:black;fill-opacity:1;"/>
<path d="M4.63184 30.4628C4.52679 30.4628 4.4241 30.4316 4.33676 30.3732C4.24942 30.3148 4.18134 30.2319 4.14114 30.1348C4.10094 30.0378 4.09042 29.931 4.11091 29.8279C4.1314 29.7249 4.18198 29.6302 4.25625 29.5559L7.26166 26.5505C7.31088 26.5007 7.36946 26.4611 7.43404 26.434C7.49862 26.4069 7.56792 26.3928 7.63796 26.3926C7.708 26.3924 7.77739 26.406 7.84214 26.4327C7.90689 26.4594 7.96572 26.4986 8.01524 26.5482C8.06476 26.5977 8.104 26.6565 8.1307 26.7213C8.1574 26.786 8.17103 26.8554 8.17081 26.9255C8.17059 26.9955 8.15652 27.0648 8.12941 27.1294C8.1023 27.194 8.06269 27.2525 8.01285 27.3017L5.00745 30.3071C4.95819 30.3566 4.89964 30.3957 4.83518 30.4225C4.77072 30.4492 4.70162 30.4629 4.63184 30.4628Z" fill="black" style="fill:black;fill-opacity:1;"/>
<path d="M3.50501 29.336C3.39996 29.336 3.29727 29.3048 3.20993 29.2464C3.12258 29.1881 3.05451 29.1051 3.01431 29.0081C2.97411 28.911 2.96359 28.8042 2.98408 28.7012C3.00457 28.5981 3.05515 28.5035 3.12942 28.4292L6.1343 25.4238C6.18363 25.3744 6.24219 25.3353 6.30663 25.3086C6.37108 25.2819 6.44016 25.2682 6.50991 25.2682C6.57967 25.2682 6.64874 25.2819 6.71319 25.3086C6.77764 25.3353 6.8362 25.3744 6.88552 25.4238C6.93485 25.4731 6.97398 25.5317 7.00067 25.5961C7.02737 25.6605 7.04111 25.7296 7.04111 25.7994C7.04111 25.8691 7.02737 25.9382 7.00067 26.0027C6.97398 26.0671 6.93485 26.1257 6.88552 26.175L3.88062 29.1804C3.83136 29.2298 3.77281 29.269 3.70835 29.2957C3.64389 29.3224 3.57479 29.3361 3.50501 29.336Z" fill="black" style="fill:black;fill-opacity:1;"/>
<path d="M8.01281 27.8331C7.87194 27.833 7.73684 27.777 7.63722 27.6774L5.75865 25.7994C5.68889 25.7296 5.63995 25.6418 5.61732 25.5457C5.59468 25.4497 5.59924 25.3493 5.63049 25.2557L6.38221 23.002C6.40818 22.9238 6.45206 22.8527 6.51035 22.7945L11.0177 18.2866C11.0759 18.2283 11.147 18.1845 11.2252 18.1585L13.4794 17.407C13.573 17.3756 13.6735 17.371 13.7695 17.3937C13.8656 17.4164 13.9534 17.4655 14.0231 17.5354L15.9012 19.4135C15.9709 19.4833 16.0198 19.5711 16.0425 19.6672C16.0651 19.7632 16.0606 19.8636 16.0293 19.9572L15.2781 22.2114C15.2521 22.2896 15.2082 22.3607 15.1499 22.4189L10.6421 26.9262C10.584 26.9847 10.5129 27.0286 10.4346 27.0544L8.18091 27.8056C8.12675 27.8239 8.06997 27.8332 8.01281 27.8331ZM6.74228 25.2801L8.156 26.6938L9.97958 26.0863L14.31 21.7564L14.9175 19.9328L13.5038 18.5191L11.6802 19.1266L7.35031 23.457L6.74228 25.2801Z" fill="black" style="fill:black;fill-opacity:1;"/>
<path d="M13.6231 13.2073C13.5533 13.2074 13.4842 13.1937 13.4198 13.167C13.3553 13.1403 13.2968 13.1011 13.2475 13.0517L11.369 11.1734C11.3196 11.1241 11.2805 11.0655 11.2538 11.0011C11.2271 10.9366 11.2133 10.8675 11.2133 10.7978C11.2133 10.728 11.2271 10.6589 11.2538 10.5945C11.2805 10.53 11.3196 10.4715 11.369 10.4221L13.9988 7.79262C14.0481 7.74327 14.1066 7.70412 14.1711 7.67741C14.2355 7.6507 14.3046 7.63696 14.3743 7.63696C14.4441 7.63696 14.5132 7.6507 14.5776 7.67741C14.6421 7.70412 14.7006 7.74327 14.7499 7.79262L16.628 9.67094C16.6773 9.72026 16.7165 9.77882 16.7432 9.84326C16.7699 9.90771 16.7836 9.97679 16.7836 10.0466C16.7836 10.1163 16.7699 10.1854 16.7432 10.2498C16.7165 10.3143 16.6773 10.3728 16.628 10.4222L13.9987 13.0517C13.9495 13.1011 13.8909 13.1403 13.8265 13.167C13.762 13.1937 13.6929 13.2074 13.6231 13.2073ZM12.4958 10.7978L13.6231 11.9249L15.5012 10.0466L14.3743 8.91946L12.4958 10.7978Z" fill="black" style="fill:black;fill-opacity:1;"/>
<path d="M16.628 11.7049C16.5582 11.705 16.4891 11.6913 16.4247 11.6646C16.3602 11.6379 16.3017 11.5987 16.2524 11.5493L15.5012 10.7978C15.4518 10.7485 15.4127 10.6899 15.386 10.6255C15.3593 10.561 15.3456 10.4919 15.3456 10.4222C15.3456 10.3524 15.3593 10.2834 15.386 10.2189C15.4127 10.1545 15.4518 10.0959 15.5012 10.0466C15.5505 9.99725 15.609 9.95812 15.6735 9.93143C15.7379 9.90473 15.807 9.89099 15.8768 9.89099C15.9465 9.89099 16.0156 9.90473 16.0801 9.93143C16.1445 9.95812 16.2031 9.99725 16.2524 10.0466L17.0036 10.7981C17.0779 10.8723 17.1285 10.967 17.1489 11.07C17.1694 11.1731 17.1589 11.2799 17.1187 11.3769C17.0785 11.474 17.0104 11.557 16.9231 11.6153C16.8358 11.6737 16.733 11.7049 16.628 11.7049Z" fill="black" style="fill:black;fill-opacity:1;"/>
<path d="M18.8822 17.7149C18.8125 17.7151 18.7434 17.7015 18.6789 17.6749C18.6145 17.6483 18.5559 17.6091 18.5066 17.5598L13.6232 12.6761C13.5236 12.5765 13.4676 12.4414 13.4676 12.3005C13.4676 12.1596 13.5236 12.0245 13.6232 11.9249C13.7228 11.8253 13.8579 11.7693 13.9988 11.7693C14.1397 11.7693 14.2748 11.8253 14.3744 11.9249L19.2578 16.8083C19.3322 16.8826 19.3829 16.9772 19.4034 17.0803C19.424 17.1833 19.4135 17.2902 19.3732 17.3873C19.333 17.4843 19.2649 17.5673 19.1775 17.6256C19.0901 17.684 18.9873 17.715 18.8822 17.7149Z" fill="black" style="fill:black;fill-opacity:1;"/>
<path d="M15.1499 19.9447C15.0802 19.9447 15.0111 19.931 14.9466 19.9043C14.8822 19.8776 14.8236 19.8384 14.7744 19.789L13.6475 18.6622C13.5982 18.6129 13.559 18.5543 13.5323 18.4899C13.5056 18.4254 13.4919 18.3563 13.4919 18.2866C13.4919 18.2168 13.5056 18.1477 13.5323 18.0833C13.559 18.0188 13.5982 17.9603 13.6475 17.911L16.6285 14.9299C16.6778 14.8806 16.7364 14.8414 16.8008 14.8147C16.8653 14.788 16.9344 14.7743 17.0041 14.7743C17.0739 14.7743 17.143 14.788 17.2074 14.8147C17.2719 14.8414 17.3304 14.8806 17.3797 14.9299L18.5066 16.057C18.5559 16.1064 18.595 16.1649 18.6218 16.2294C18.6485 16.2938 18.6622 16.3629 18.6622 16.4326C18.6622 16.5024 18.6485 16.5715 18.6218 16.6359C18.595 16.7004 18.5559 16.7589 18.5066 16.8083L15.5256 19.789C15.4763 19.8384 15.4177 19.8776 15.3533 19.9043C15.2888 19.931 15.2197 19.9448 15.1499 19.9447ZM14.7744 18.2866L15.1499 18.6622L17.3797 16.4326L17.0042 16.0568L14.7744 18.2866Z" fill="black" style="fill:black;fill-opacity:1;"/>
<path d="M18.1315 16.9642C18.0101 16.9643 17.8924 16.9229 17.7978 16.8468C17.7033 16.7707 17.6376 16.6645 17.6118 16.5459C17.586 16.4273 17.6015 16.3035 17.6558 16.195C17.7102 16.0864 17.8001 15.9998 17.9105 15.9494L24.0121 13.1643C24.0755 13.1353 24.1441 13.1191 24.2138 13.1167C24.2835 13.1142 24.353 13.1255 24.4184 13.1499C24.4837 13.1743 24.5436 13.2113 24.5947 13.2589C24.6457 13.3064 24.6869 13.3636 24.7158 13.427C24.7448 13.4905 24.761 13.559 24.7634 13.6287C24.7659 13.6985 24.7546 13.768 24.7302 13.8333C24.7058 13.8987 24.6688 13.9586 24.6212 14.0096C24.5737 14.0606 24.5165 14.1018 24.4531 14.1308L18.3515 16.9159C18.2825 16.9477 18.2074 16.9641 18.1315 16.9642Z" fill="black" style="fill:black;fill-opacity:1;"/>
<path d="M19.6334 11.7048H16.628C16.4871 11.7048 16.352 11.6489 16.2523 11.5492C16.1527 11.4496 16.0967 11.3145 16.0967 11.1736C16.0967 11.0327 16.1527 10.8976 16.2523 10.7979C16.352 10.6983 16.4871 10.6423 16.628 10.6423H19.6334C19.7743 10.6423 19.9094 10.6983 20.009 10.7979C20.1087 10.8976 20.1646 11.0327 20.1646 11.1736C20.1646 11.3145 20.1087 11.4496 20.009 11.5492C19.9094 11.6489 19.7743 11.7048 19.6334 11.7048Z" fill="black" style="fill:black;fill-opacity:1;"/>
<path d="M28.2092 18.1554C28.1394 18.1555 28.0703 18.1418 28.0059 18.115C27.9414 18.0883 27.8829 18.0491 27.8336 17.9997L23.857 14.0231C23.8077 13.9738 23.7685 13.9153 23.7418 13.8508C23.7152 13.7864 23.7014 13.7173 23.7014 13.6475C23.7014 13.5778 23.7152 13.5087 23.7418 13.4442C23.7685 13.3798 23.8077 13.3212 23.857 13.2719C23.9063 13.2226 23.9649 13.1835 24.0293 13.1568C24.0938 13.1301 24.1629 13.1163 24.2326 13.1163C24.3024 13.1163 24.3714 13.1301 24.4359 13.1568C24.5003 13.1835 24.5589 13.2226 24.6082 13.2719L28.5848 17.2485C28.6591 17.3228 28.7097 17.4175 28.7302 17.5205C28.7506 17.6235 28.7401 17.7303 28.6999 17.8274C28.6597 17.9244 28.5916 18.0074 28.5043 18.0658C28.417 18.1242 28.3142 18.1554 28.2092 18.1554Z" fill="black" style="fill:black;fill-opacity:1;"/>
<path d="M31.9653 14.3988C31.8955 14.3989 31.8264 14.3851 31.7619 14.3584C31.6975 14.3317 31.6389 14.2925 31.5897 14.2431L27.8336 10.4868C27.7339 10.3871 27.678 10.252 27.678 10.1112C27.678 9.97027 27.7339 9.83516 27.8336 9.73554C27.9332 9.63592 28.0683 9.57996 28.2092 9.57996C28.3501 9.57996 28.4852 9.63592 28.5848 9.73554L32.3409 13.4919C32.4152 13.5662 32.4657 13.6608 32.4862 13.7639C32.5067 13.8669 32.4962 13.9737 32.456 14.0708C32.4158 14.1678 32.3477 14.2508 32.2604 14.3092C32.173 14.3676 32.0703 14.3988 31.9653 14.3988Z" fill="black" style="fill:black;fill-opacity:1;"/>
<path d="M27.4574 18.9066C27.3524 18.9066 27.2497 18.8754 27.1623 18.8171C27.075 18.7587 27.0069 18.6757 26.9667 18.5787C26.9265 18.4816 26.916 18.3748 26.9365 18.2718C26.957 18.1687 27.0075 18.0741 27.0818 17.9998L32.3414 12.7407C32.4412 12.642 32.576 12.5869 32.7164 12.5873C32.8567 12.5877 32.9912 12.6436 33.0905 12.7429C33.1897 12.8421 33.2456 12.9766 33.246 13.117C33.2464 13.2573 33.1913 13.3921 33.0926 13.4919L27.833 18.751C27.7838 18.8004 27.7252 18.8396 27.6607 18.8663C27.5963 18.893 27.5272 18.9067 27.4574 18.9066Z" fill="black" style="fill:black;fill-opacity:1;"/>
<path d="M28.9604 9.89093C28.8553 9.89091 28.7526 9.85974 28.6653 9.80137C28.5779 9.74299 28.5099 9.66003 28.4697 9.56297C28.4295 9.46591 28.419 9.35911 28.4394 9.25607C28.4599 9.15303 28.5105 9.05839 28.5848 8.98409C28.8833 8.685 29.0509 8.27969 29.0509 7.85713C29.0509 7.43457 28.8833 7.02926 28.5848 6.73017C28.5355 6.68085 28.4963 6.62229 28.4696 6.55784C28.4429 6.49339 28.4292 6.42432 28.4292 6.35456C28.4292 6.2848 28.4429 6.21573 28.4696 6.15128C28.4963 6.08683 28.5355 6.02827 28.5848 5.97895C28.6341 5.92962 28.6927 5.89049 28.7571 5.8638C28.8216 5.8371 28.8906 5.82336 28.9604 5.82336C29.0301 5.82336 29.0992 5.8371 29.1637 5.8638C29.2281 5.89049 29.2867 5.92962 29.336 5.97895C29.8333 6.47749 30.1126 7.15293 30.1126 7.85713C30.1126 8.56133 29.8333 9.23677 29.336 9.73531C29.2867 9.78472 29.2282 9.8239 29.1637 9.85061C29.0993 9.87732 29.0302 9.89102 28.9604 9.89093Z" fill="black" style="fill:black;fill-opacity:1;"/>
<path d="M28.2092 10.6423C28.1041 10.6423 28.0014 10.6112 27.9141 10.5528C27.8267 10.4944 27.7587 10.4114 27.7185 10.3144C27.6783 10.2173 27.6678 10.1105 27.6882 10.0075C27.7087 9.90445 27.7593 9.8098 27.8336 9.7355L28.5848 8.98402C28.634 8.93424 28.6926 8.89467 28.7572 8.8676C28.8217 8.84053 28.891 8.8265 28.961 8.8263C29.031 8.8261 29.1004 8.83974 29.1651 8.86644C29.2298 8.89314 29.2887 8.93237 29.3382 8.98188C29.3877 9.03138 29.4269 9.09019 29.4536 9.15491C29.4803 9.21963 29.4939 9.28899 29.4937 9.359C29.4935 9.42901 29.4795 9.4983 29.4524 9.56286C29.4254 9.62743 29.3858 9.68601 29.336 9.73523L28.5848 10.4867C28.5355 10.5361 28.477 10.5753 28.4125 10.602C28.3481 10.6287 28.279 10.6424 28.2092 10.6423Z" fill="black" style="fill:black;fill-opacity:1;"/>
<path d="M28.9604 6.88571C28.8553 6.88568 28.7527 6.85452 28.6653 6.79614C28.578 6.73776 28.5099 6.6548 28.4697 6.55774C28.4295 6.46068 28.419 6.35388 28.4395 6.25085C28.46 6.14781 28.5105 6.05316 28.5848 5.97886L31.9658 2.59809C32.0151 2.54877 32.0737 2.50964 32.1381 2.48294C32.2026 2.45625 32.2717 2.44251 32.3414 2.4425C32.4112 2.4425 32.4802 2.45624 32.5447 2.48294C32.6091 2.50963 32.6677 2.54876 32.717 2.59808C32.7664 2.64741 32.8055 2.70597 32.8322 2.77042C32.8589 2.83486 32.8726 2.90394 32.8726 2.9737C32.8726 3.04346 32.8589 3.11253 32.8322 3.17698C32.8055 3.24143 32.7664 3.29999 32.717 3.34931L29.336 6.73007C29.2867 6.77948 29.2282 6.81866 29.1637 6.84537C29.0993 6.87208 29.0302 6.88579 28.9604 6.88571Z" fill="black" style="fill:black;fill-opacity:1;"/>
<path d="M25.955 6.13454C25.8499 6.13452 25.7472 6.10335 25.6599 6.04498C25.5725 5.9866 25.5045 5.90364 25.4643 5.80658C25.4241 5.70952 25.4135 5.60272 25.434 5.49968C25.4545 5.39665 25.5051 5.302 25.5794 5.2277L30.0872 0.719851C30.1364 0.670015 30.195 0.630402 30.2596 0.603293C30.3241 0.576184 30.3934 0.562114 30.4635 0.561892C30.5335 0.56167 30.6029 0.575301 30.6677 0.602001C30.7324 0.6287 30.7912 0.667941 30.8408 0.717464C30.8903 0.766988 30.9295 0.825816 30.9562 0.890565C30.9829 0.955314 30.9966 1.0247 30.9964 1.09474C30.9961 1.16478 30.9821 1.23408 30.955 1.29866C30.9279 1.36324 30.8882 1.42183 30.8384 1.47104L26.3306 5.97888C26.2813 6.0283 26.2228 6.06749 26.1583 6.0942C26.0938 6.12091 26.0247 6.13462 25.955 6.13454Z" fill="black" style="fill:black;fill-opacity:1;"/>
<path d="M32.3414 3.50505C32.2716 3.50513 32.2025 3.49142 32.1381 3.4647C32.0736 3.43799 32.0151 3.3988 31.9658 3.34939L30.0872 1.47107C29.9887 1.37124 29.9336 1.23646 29.934 1.09616C29.9345 0.955858 29.9904 0.821431 30.0896 0.722225C30.1888 0.623019 30.3233 0.567091 30.4636 0.566653C30.6039 0.566215 30.7386 0.6213 30.8385 0.719885L32.717 2.59819C32.7913 2.67248 32.8419 2.76713 32.8624 2.87017C32.8829 2.97321 32.8724 3.08001 32.8322 3.17707C32.792 3.27413 32.7239 3.35709 32.6365 3.41546C32.5492 3.47384 32.4465 3.50503 32.3414 3.50505Z" fill="black" style="fill:black;fill-opacity:1;"/>
<path d="M30.4628 5.383C30.3931 5.38308 30.324 5.36937 30.2595 5.34265C30.195 5.31594 30.1365 5.27675 30.0872 5.22734L28.2092 3.34931C28.1096 3.24969 28.0536 3.11458 28.0536 2.9737C28.0536 2.83282 28.1096 2.69771 28.2092 2.59809C28.3088 2.49847 28.4439 2.4425 28.5848 2.4425C28.7257 2.4425 28.8608 2.49847 28.9604 2.59809L30.8384 4.47614C30.9127 4.55043 30.9633 4.64508 30.9838 4.74812C31.0043 4.85116 30.9938 4.95796 30.9536 5.05502C30.9134 5.15207 30.8453 5.23504 30.7579 5.29341C30.6706 5.35179 30.5679 5.38297 30.4628 5.383Z" fill="black" style="fill:black;fill-opacity:1;"/>
<path d="M21.1359 13.2073C21.0661 13.2074 20.997 13.1937 20.9325 13.167C20.8681 13.1403 20.8095 13.1011 20.7603 13.0517L19.2578 11.5493C19.2085 11.4999 19.1694 11.4414 19.1427 11.3769C19.116 11.3125 19.1022 11.2434 19.1022 11.1737C19.1022 11.1039 19.116 11.0348 19.1427 10.9704C19.1694 10.9059 19.2085 10.8474 19.2578 10.798C19.3071 10.7487 19.3657 10.7096 19.4301 10.6829C19.4946 10.6562 19.5637 10.6425 19.6334 10.6425C19.7032 10.6425 19.7723 10.6562 19.8367 10.6829C19.9012 10.7096 19.9597 10.7487 20.009 10.798L21.5115 12.3005C21.5858 12.3748 21.6363 12.4694 21.6568 12.5725C21.6773 12.6755 21.6668 12.7823 21.6266 12.8794C21.5864 12.9764 21.5183 13.0594 21.431 13.1178C21.3436 13.1761 21.2409 13.2073 21.1359 13.2073Z" fill="black" style="fill:black;fill-opacity:1;"/>
<path d="M25.955 8.38849C25.8499 8.38847 25.7473 8.3573 25.6599 8.29893C25.5726 8.24055 25.5045 8.15759 25.4643 8.06053C25.4241 7.96347 25.4136 7.85667 25.4341 7.75363C25.4546 7.6506 25.5051 7.55595 25.5794 7.48165C25.6782 7.38308 25.7567 7.26597 25.8102 7.13704C25.8637 7.00811 25.8912 6.86989 25.8912 6.7303C25.8912 6.59071 25.8637 6.45249 25.8102 6.32356C25.7567 6.19463 25.6782 6.07752 25.5794 5.97895C25.5301 5.92962 25.491 5.87106 25.4643 5.80662C25.4376 5.74217 25.4238 5.67309 25.4238 5.60334C25.4238 5.46245 25.4798 5.32734 25.5794 5.22773C25.679 5.12811 25.8141 5.07214 25.955 5.07214C26.0959 5.07214 26.231 5.12811 26.3306 5.22773C26.5282 5.42494 26.6849 5.65915 26.7918 5.91698C26.8987 6.17481 26.9537 6.45118 26.9537 6.7303C26.9537 7.00941 26.8987 7.28579 26.7918 7.54362C26.6849 7.80144 26.5282 8.03566 26.3306 8.23287C26.2814 8.28228 26.2228 8.32146 26.1584 8.34817C26.0939 8.37488 26.0248 8.38858 25.955 8.38849Z" fill="black" style="fill:black;fill-opacity:1;"/>
<path d="M21.1359 13.2073C21.0308 13.2073 20.9281 13.1761 20.8408 13.1178C20.7534 13.0594 20.6854 12.9764 20.6452 12.8794C20.605 12.7823 20.5944 12.6755 20.6149 12.5725C20.6354 12.4694 20.686 12.3748 20.7603 12.3005L25.5794 7.48163C25.679 7.38202 25.8141 7.32605 25.955 7.32605C26.0959 7.32605 26.231 7.38201 26.3306 7.48163C26.4302 7.58125 26.4862 7.71636 26.4862 7.85724C26.4862 7.99812 26.4302 8.13323 26.3306 8.23285L21.5115 13.0517C21.4622 13.1011 21.4037 13.1403 21.3392 13.167C21.2748 13.1937 21.2056 13.2074 21.1359 13.2073Z" fill="black" style="fill:black;fill-opacity:1;"/>
<path d="M20.009 12.0805C19.904 12.0805 19.8013 12.0494 19.714 11.991C19.6266 11.9326 19.5585 11.8496 19.5183 11.7526C19.4781 11.6555 19.4676 11.5487 19.4881 11.4457C19.5086 11.3426 19.5592 11.248 19.6334 11.1737L25.5794 5.22773C25.679 5.12811 25.8141 5.07214 25.955 5.07214C26.0959 5.07214 26.231 5.12811 26.3306 5.22773C26.4302 5.32734 26.4862 5.46245 26.4862 5.60334C26.4862 5.74422 26.4302 5.87933 26.3306 5.97895L20.3847 11.9249C20.3354 11.9743 20.2768 12.0135 20.2124 12.0402C20.1479 12.0669 20.0788 12.0806 20.009 12.0805Z" fill="black" style="fill:black;fill-opacity:1;"/>
<path d="M18.8817 11.7049C18.7911 11.7048 18.7021 11.6816 18.6231 11.6375C18.544 11.5934 18.4776 11.5298 18.43 11.4528C18.3825 11.3757 18.3554 11.2878 18.3514 11.1974C18.3473 11.107 18.3665 11.017 18.407 10.936L19.9094 7.93064C19.9725 7.80476 20.083 7.70908 20.2166 7.66463C20.3502 7.62017 20.496 7.63057 20.622 7.69354C20.7479 7.75652 20.8437 7.86691 20.8883 8.00048C20.9329 8.13404 20.9227 8.27985 20.8598 8.40586L19.3574 11.4113C19.3132 11.4996 19.2453 11.5739 19.1613 11.6257C19.0772 11.6776 18.9804 11.705 18.8817 11.7049Z" fill="black" style="fill:black;fill-opacity:1;"/>
<path d="M17.3792 11.7048C17.2887 11.7048 17.1997 11.6816 17.1207 11.6375C17.0416 11.5933 16.9752 11.5297 16.9276 11.4527C16.88 11.3757 16.853 11.2878 16.8489 11.1973C16.8449 11.1069 16.864 11.0169 16.9045 10.936L19.9094 4.92542C19.9406 4.86301 19.9838 4.80736 20.0365 4.76164C20.0892 4.71593 20.1504 4.68104 20.2166 4.65898C20.2828 4.63691 20.3527 4.6281 20.4223 4.63305C20.4919 4.638 20.5598 4.6566 20.6222 4.68781C20.6846 4.71901 20.7403 4.7622 20.786 4.81491C20.8317 4.86762 20.8666 4.92882 20.8887 4.99501C20.9107 5.06121 20.9196 5.1311 20.9146 5.20069C20.9097 5.27029 20.8911 5.33823 20.8598 5.40064L17.855 11.4112C17.8108 11.4995 17.7429 11.5738 17.6588 11.6257C17.5748 11.6775 17.478 11.705 17.3792 11.7048Z" fill="black" style="fill:black;fill-opacity:1;"/>
<path d="M10.2665 27.0818C10.1968 27.0819 10.1277 27.0682 10.0632 27.0415C9.99875 27.0148 9.94021 26.9756 9.89095 26.9262L6.51045 23.5457C6.41118 23.446 6.3555 23.311 6.35565 23.1703C6.3558 23.0296 6.41176 22.8947 6.51124 22.7952C6.61073 22.6957 6.74561 22.6398 6.88631 22.6396C7.027 22.6395 7.162 22.6952 7.26168 22.7945L10.6422 26.175C10.7165 26.2493 10.767 26.3439 10.7875 26.4469C10.808 26.55 10.7975 26.6568 10.7573 26.7538C10.7171 26.8509 10.649 26.9339 10.5617 26.9922C10.4743 27.0506 10.3716 27.0818 10.2665 27.0818Z" fill="black" style="fill:black;fill-opacity:1;"/>
<path d="M11.7695 25.5794C11.6997 25.5795 11.6306 25.5658 11.5661 25.5391C11.5017 25.5124 11.4431 25.4732 11.3939 25.4238L8.01282 22.0428C7.9635 21.9935 7.92437 21.9349 7.89767 21.8705C7.87098 21.806 7.85724 21.7369 7.85724 21.6672C7.85724 21.5974 7.87098 21.5283 7.89767 21.4639C7.92437 21.3995 7.9635 21.3409 8.01282 21.2916C8.06215 21.2422 8.12071 21.2031 8.18515 21.1764C8.2496 21.1497 8.31867 21.136 8.38843 21.136C8.45819 21.136 8.52726 21.1497 8.59171 21.1764C8.65616 21.2031 8.71472 21.2422 8.76404 21.2916L12.1451 24.6726C12.2193 24.7469 12.2699 24.8415 12.2904 24.9446C12.3109 25.0476 12.3004 25.1544 12.2602 25.2515C12.22 25.3485 12.1519 25.4315 12.0645 25.4899C11.9772 25.5482 11.8745 25.5794 11.7695 25.5794Z" fill="black" style="fill:black;fill-opacity:1;"/>
<path d="M13.2719 24.0769C13.2022 24.077 13.1331 24.0633 13.0686 24.0366C13.0041 24.0099 12.9456 23.9707 12.8963 23.9213L9.51532 20.5403C9.41664 20.4405 9.36148 20.3056 9.36188 20.1653C9.36228 20.0249 9.41821 19.8904 9.51746 19.7912C9.61671 19.692 9.7512 19.636 9.89156 19.6356C10.0319 19.6352 10.1667 19.6904 10.2665 19.7891L13.6475 23.1701C13.7218 23.2444 13.7724 23.339 13.7929 23.4421C13.8134 23.5451 13.8028 23.6519 13.7626 23.749C13.7224 23.846 13.6544 23.929 13.567 23.9874C13.4797 24.0457 13.377 24.0769 13.2719 24.0769Z" fill="black" style="fill:black;fill-opacity:1;"/>
<path d="M14.7744 22.5745C14.7046 22.5745 14.6355 22.5608 14.571 22.5341C14.5066 22.5074 14.448 22.4682 14.3988 22.4188L11.0178 19.0378C10.9181 18.9382 10.8622 18.8031 10.8622 18.6622C10.8622 18.5213 10.9181 18.3862 11.0178 18.2866C11.1174 18.1869 11.2525 18.131 11.3934 18.131C11.5343 18.131 11.6694 18.1869 11.769 18.2866L15.15 21.6676C15.2243 21.7419 15.2748 21.8365 15.2953 21.9396C15.3158 22.0426 15.3053 22.1494 15.2651 22.2464C15.2249 22.3435 15.1568 22.4265 15.0695 22.4848C14.9821 22.5432 14.8794 22.5744 14.7744 22.5745Z" fill="black" style="fill:black;fill-opacity:1;"/>
<path d="M29.7116 19.6577C29.6418 19.6578 29.5727 19.6441 29.5083 19.6174C29.4438 19.5907 29.3853 19.5515 29.336 19.5021L27.8336 17.9997C27.7842 17.9503 27.7451 17.8918 27.7184 17.8273C27.6917 17.7629 27.6779 17.6938 27.6779 17.624C27.6779 17.5543 27.6917 17.4852 27.7184 17.4208C27.7451 17.3563 27.7842 17.2977 27.8336 17.2484L28.9604 16.1213C29.0619 16.0254 29.1963 15.9719 29.336 15.9719C29.4757 15.9719 29.6101 16.0254 29.7116 16.1213L31.214 17.624C31.2634 17.6734 31.3025 17.7319 31.3292 17.7964C31.3559 17.8608 31.3697 17.9299 31.3697 17.9997C31.3697 18.0694 31.3559 18.1385 31.3292 18.2029C31.3025 18.2674 31.2634 18.3259 31.214 18.3753L30.0872 19.5021C30.0379 19.5515 29.9794 19.5907 29.9149 19.6174C29.8505 19.6441 29.7814 19.6578 29.7116 19.6577ZM28.9604 17.6241L29.7116 18.3753L30.0872 17.9997L29.336 17.2484L28.9604 17.6241Z" fill="black" style="fill:black;fill-opacity:1;"/>
<path d="M32.3414 17.0283C32.2717 17.0284 32.2026 17.0147 32.1381 16.988C32.0737 16.9612 32.0151 16.9221 31.9659 16.8726L30.4629 15.3702C30.4136 15.3209 30.3744 15.2623 30.3477 15.1979C30.321 15.1334 30.3073 15.0644 30.3073 14.9946C30.3073 14.9248 30.321 14.8558 30.3477 14.7913C30.3744 14.7269 30.4136 14.6683 30.4629 14.619L31.5897 13.4919C31.6912 13.3958 31.8256 13.3423 31.9653 13.3423C32.1051 13.3423 32.2395 13.3958 32.3409 13.4919L33.8439 14.9946C33.8932 15.0439 33.9324 15.1025 33.9591 15.1669C33.9858 15.2314 33.9995 15.3004 33.9995 15.3702C33.9995 15.44 33.9858 15.509 33.9591 15.5735C33.9324 15.6379 33.8932 15.6965 33.8439 15.7458L32.7171 16.8727C32.6678 16.9221 32.6093 16.9613 32.5448 16.988C32.4803 17.0147 32.4112 17.0284 32.3414 17.0283ZM31.5897 14.9946L32.3414 15.7458L32.717 15.3702L31.9653 14.6188L31.5897 14.9946Z" fill="black" style="fill:black;fill-opacity:1;"/>
</g>
<defs>
<clipPath id="clip0_50_524">
<rect width="34" height="34" fill="white" style="fill:white;fill-opacity:1;"/>
</clipPath>
</defs>
</svg>
