<svg width="622" height="313" viewBox="0 0 622 313" fill="none" xmlns="http://www.w3.org/2000/svg">
<path d="M240.091 77.0274C230.554 83.9231 215.54 98.3505 209.574 106.224C203.852 113.903 200.966 121.141 200.819 128.428C200.722 132.291 201.749 135.03 204.341 137.769L205.857 139.334L203.46 144.371C202.14 147.159 200.428 151.023 199.646 152.93L198.276 156.5L195.586 157.283C187.81 159.532 183.311 160.119 173.041 160.119C161.499 160.168 156.461 159.434 150.788 156.793C146.289 154.739 143.061 152.05 134.062 142.953L126.629 135.47L130.981 132.536L135.334 129.602L137.192 130.726C138.66 131.558 139.784 131.802 142.474 131.802C145.604 131.802 146.24 131.607 149.81 129.65C151.962 128.477 155.581 126.08 157.88 124.32C161.792 121.336 179.399 104.024 181.404 101.138L182.333 99.8666L179.643 100.551C178.127 100.943 176.758 101.187 176.562 101.04C176.073 100.747 166.879 102.361 161.939 103.632C149.908 106.713 138.073 113.071 134.551 118.304C133.622 119.674 133.427 120.603 133.427 123.733V127.499L128.487 130.775L123.548 134.052L119.391 132.585C113.179 130.335 107.946 129.553 98.9477 129.553C83.5911 129.553 65.6914 133.025 39.82 141.095C37.6192 141.779 37.4725 141.779 37.8149 140.948C38.6952 138.796 38.5485 136.448 37.1791 131.851L35.8097 127.01L34.9783 129.895C33.56 135.03 33.7067 137.769 35.3695 139.774C36.0542 140.605 36.5922 141.437 36.5922 141.681C36.5922 141.926 35.3206 142.513 33.8045 143.002C27.6424 144.909 -3.36422 156.207 -3.85328 156.696C-3.95109 156.745 -3.60875 157.82 -3.07078 158.994C-2.53281 160.168 -1.79922 161.978 -1.40797 162.956L-0.674372 164.765L7.34626 161.537C34.0002 150.827 57.7197 143.051 74.4946 139.383C77.1844 138.796 79.6297 138.258 79.9721 138.16C80.3144 138.062 81.2436 139.187 82.075 140.654C83.4444 143.002 83.5422 143.491 83.1021 144.86C82.2218 147.306 82.4663 151.609 83.5911 154.055C85.3029 157.918 102.713 174.155 103.887 173.03C103.985 172.933 103.447 171.172 102.665 169.167C101.931 167.162 101.002 164.325 100.659 162.858C99.7302 158.603 94.7418 148.626 92.3454 146.23C90.438 144.322 86.77 142.317 85.205 142.317C84.3736 142.317 82.3196 138.454 82.9064 137.916C83.1021 137.72 85.4007 137.28 87.9438 136.986C103.056 135.275 111.566 136.057 120.075 140.116C123.107 141.535 124.819 142.904 132.057 149.995C141.447 159.19 144.626 161.391 151.766 163.787C156.168 165.254 156.168 165.254 157.097 167.602C157.635 168.873 159.102 172.346 160.423 175.28C162.477 179.975 162.673 180.709 162.086 181.393C161.694 181.833 160.814 183.398 160.129 184.866C158.516 188.338 158.516 191.468 160.129 196.701C163.113 206.238 167.465 211.862 182.577 225.605C188.789 231.278 197.592 238.125 198.668 238.173C198.863 238.173 198.912 237.684 198.765 237.049C197.543 232.843 195.489 223.991 194.755 220.078C193.386 212.547 187.81 196.701 183.507 188.24C181.306 183.839 175.779 180.024 170.057 178.997C168.346 178.655 166.683 178.312 166.438 178.263C165.9 178.117 160.57 166.33 160.912 166.037C161.01 165.988 163.259 166.086 165.949 166.33C174.41 167.113 185.169 166.086 195.244 163.543C204.487 161.195 214.269 157.234 235.641 147.11L241.265 144.42L245.226 146.279C247.378 147.306 251.437 148.92 254.225 149.849L259.311 151.56L259.898 154.446C260.73 158.407 261.708 160.119 264.887 163.151C268.066 166.232 273.934 169.265 279.412 170.781C282.884 171.759 284.596 171.857 294.817 171.905C313.059 172.003 322.352 171.172 331.448 168.727L333.6 168.189L329.981 165.841C327.976 164.57 323.281 161.684 319.515 159.434C315.749 157.185 311.054 154.25 309.049 152.93C302.153 148.284 289.144 142.757 280.537 140.752C276.233 139.725 276.037 139.725 272.516 140.557C268.163 141.584 263.762 143.735 261.854 145.643L260.534 147.11L254.127 144.714C250.606 143.393 247.623 142.219 247.525 142.122C246.889 141.535 261.561 137.035 268.408 135.715C276.967 134.101 282.346 133.905 290.514 134.981C299.463 136.106 308.511 137.769 320.738 140.41L329.785 142.415L334.823 147.746L339.86 153.028L339.371 155.62C338.833 158.505 339.322 161.978 340.594 164.374C341.963 167.064 350.13 175.035 354.287 177.823C358.885 180.904 363.922 183.252 369.693 185.11C371.943 185.844 375.513 187.164 377.567 188.142C381.088 189.707 385.685 191.223 387.152 191.223C387.495 191.223 386.761 190.001 385.538 188.485C384.316 187.018 382.555 184.279 381.626 182.42C378.838 176.845 372.529 168.238 364.362 158.75C360.89 154.788 360.205 154.25 355.755 152.05C351.549 149.995 350.522 149.653 347.93 149.653C346.267 149.653 344.213 149.849 343.381 150.093C341.865 150.533 341.718 150.436 339.077 147.403C337.561 145.692 336.485 144.273 336.73 144.273C336.926 144.273 342.745 145.594 349.592 147.208C362.21 150.191 374.094 152.832 382.115 154.544C384.56 155.082 389.206 155.718 392.483 155.962C399.721 156.5 416.398 155.864 421.631 154.837C426.571 153.859 429.75 154.446 432.244 156.793C436.254 160.559 441.732 161.44 450.193 159.728C452.393 159.239 454.643 158.848 455.181 158.799C457.235 158.652 455.377 157.527 448.97 155.033C440.607 151.805 436.841 151.365 432.195 153.077C430.581 153.663 429.114 154.006 428.967 153.859C428.527 153.419 428.723 153.321 433.956 151.903C441.047 149.947 449.899 146.523 467.114 139.187C496.36 126.667 504.479 123.928 519.297 121.532C524.139 120.75 526.388 121.092 528.638 122.95C530.105 124.173 530.594 124.369 533.773 124.907C535.241 125.151 539.251 124.466 543.75 123.244L545.951 122.608L541.892 121.483C535.143 119.674 535.632 119.527 546.44 120.309C562.628 121.483 571.822 123.928 582.386 129.797C584.929 131.215 592.852 136.155 599.992 140.703C614.567 149.995 616.621 151.316 616.621 150.974C616.621 150.876 614.811 149.555 612.61 148.137C610.361 146.67 604.394 142.66 599.308 139.138C594.173 135.666 588.304 131.802 586.201 130.531L582.435 128.232L585.223 127.89L588.01 127.548L585.565 126.569C584.196 126.031 581.653 125.542 579.892 125.445C577.838 125.347 575.05 124.711 572.312 123.733C559.547 119.233 537.539 117.473 521.84 119.82C509.467 121.63 497.974 124.515 489.073 128.085C487.655 128.623 486.383 129.113 486.236 129.113C486.09 129.113 486.726 128.281 487.704 127.254C489.562 125.298 495.822 116.739 495.626 116.495C495.382 116.25 485.503 120.309 482.96 121.679C479.683 123.439 477.433 126.129 476.504 129.308C475.33 133.221 473.668 134.345 460.463 139.725C440.411 147.893 428.038 151.512 416.594 152.539C408.867 153.223 396.983 153.517 397.325 153.028C397.472 152.783 397.961 152.588 398.401 152.588C400.748 152.588 412.388 148.186 420.017 144.371L428.576 140.116L425.642 139.725C414.54 138.307 405.199 137.622 402.362 137.965C391.603 139.432 389.695 140.312 387.397 144.958L386.125 147.55L381.43 148.626L376.735 149.653L368.177 147.697C363.482 146.621 355.314 144.616 350.081 143.246C316.972 134.688 313.206 133.808 301.42 131.753C297.654 131.118 293.839 130.58 293.008 130.58C292.127 130.58 291.394 130.433 291.394 130.188C291.394 129.993 293.692 128.33 296.48 126.52L301.566 123.195L303.474 124.32C307.875 127.01 311.201 127.352 317.314 125.64C323.672 123.928 329.785 119.918 340.887 110.235C347.294 104.61 363.286 88.9116 363.286 88.178C363.286 87.9335 358.298 88.3247 352.184 89.0583C335.996 91.0146 333.845 91.3569 327.487 93.2153C315.016 96.7855 306.946 101.138 302.936 106.42C300.001 110.235 299.268 112.289 299.219 116.446V119.674L291.785 124.564L284.302 129.504L280.243 129.797C271.782 130.433 259.605 133.025 248.112 136.546C243.417 137.965 240.287 139.236 220.04 148.137C212.606 151.414 204.83 154.544 204.145 154.544C204.047 154.544 205.319 151.512 206.933 147.746L209.867 140.948L213.584 140.752C217.937 140.508 220.089 139.53 223.805 136.204C228.403 132.047 232.315 124.515 235.885 112.778C237.157 108.572 244.444 75.9514 244.444 74.4842C244.444 74.0441 243.319 74.6799 240.091 77.0274ZM387.984 150.142C388.179 150.436 389.304 151.169 390.576 151.854C392.043 152.636 392.434 152.979 391.652 152.832C390.967 152.734 389.06 152.392 387.348 152.098C385.636 151.805 383.778 151.365 383.191 151.169C382.262 150.827 382.408 150.68 384.316 150.24C387.299 149.604 387.641 149.555 387.984 150.142Z" fill="black" fill-opacity="0.15" style="fill:black;fill-opacity:0.15;"/>
</svg>
